<?xml version="1.0" encoding="UTF-8" standalone="no"?>
<!DOCTYPE svg PUBLIC "-//W3C//DTD SVG 1.1//EN" "http://www.w3.org/Graphics/SVG/1.1/DTD/svg11.dtd">
<svg width="100%" height="100%" viewBox="0 0 300 61" version="1.1" xmlns="http://www.w3.org/2000/svg" xmlns:xlink="http://www.w3.org/1999/xlink" xml:space="preserve" xmlns:serif="http://www.serif.com/" style="fill-rule:evenodd;clip-rule:evenodd;stroke-linejoin:round;stroke-miterlimit:2;">
    <g transform="matrix(1,0,0,1,-8,-36)">
        <g transform="matrix(64,0,0,64,16,80)">
            <path d="M0.356,-0.516C0.361,-0.528 0.366,-0.54 0.37,-0.551C0.374,-0.562 0.374,-0.573 0.371,-0.586C0.364,-0.589 0.355,-0.587 0.343,-0.581C0.33,-0.574 0.318,-0.566 0.305,-0.557C0.292,-0.547 0.279,-0.537 0.268,-0.527C0.257,-0.517 0.248,-0.51 0.243,-0.505C0.218,-0.482 0.194,-0.458 0.171,-0.433C0.148,-0.408 0.13,-0.381 0.117,-0.352C0.121,-0.353 0.125,-0.355 0.128,-0.356C0.131,-0.357 0.135,-0.359 0.138,-0.36C0.166,-0.372 0.194,-0.384 0.222,-0.396C0.249,-0.408 0.276,-0.422 0.302,-0.437C0.309,-0.44 0.316,-0.442 0.323,-0.441C0.329,-0.44 0.335,-0.435 0.34,-0.426C0.341,-0.423 0.343,-0.421 0.346,-0.419C0.348,-0.416 0.35,-0.413 0.353,-0.41C0.332,-0.399 0.315,-0.385 0.301,-0.368C0.286,-0.351 0.272,-0.333 0.258,-0.316C0.214,-0.264 0.177,-0.209 0.146,-0.15C0.115,-0.09 0.09,-0.027 0.073,0.041C0.069,0.058 0.067,0.07 0.067,0.079C0.066,0.088 0.067,0.097 0.069,0.108C0.074,0.111 0.083,0.109 0.095,0.104C0.107,0.098 0.121,0.085 0.136,0.066C0.167,0.031 0.195,0.002 0.218,-0.024C0.241,-0.048 0.263,-0.075 0.282,-0.102C0.272,-0.115 0.265,-0.129 0.26,-0.143C0.255,-0.157 0.254,-0.173 0.259,-0.19C0.27,-0.22 0.285,-0.246 0.304,-0.267C0.323,-0.288 0.345,-0.306 0.37,-0.32C0.38,-0.327 0.389,-0.329 0.396,-0.328C0.403,-0.327 0.41,-0.321 0.419,-0.312C0.422,-0.308 0.426,-0.304 0.429,-0.3C0.432,-0.296 0.436,-0.292 0.439,-0.289C0.452,-0.276 0.454,-0.262 0.445,-0.247C0.434,-0.228 0.422,-0.209 0.409,-0.192C0.396,-0.174 0.386,-0.16 0.377,-0.149C0.396,-0.154 0.411,-0.158 0.424,-0.162C0.436,-0.166 0.447,-0.17 0.457,-0.174C0.467,-0.178 0.477,-0.182 0.487,-0.186C0.496,-0.19 0.508,-0.195 0.521,-0.201C0.526,-0.195 0.533,-0.188 0.54,-0.179C0.515,-0.162 0.489,-0.149 0.461,-0.14C0.433,-0.131 0.405,-0.122 0.378,-0.113C0.359,-0.106 0.345,-0.099 0.337,-0.091C0.328,-0.083 0.32,-0.073 0.311,-0.062C0.279,-0.021 0.247,0.017 0.215,0.053C0.183,0.088 0.148,0.119 0.111,0.147C0.104,0.151 0.098,0.153 0.092,0.153C0.086,0.153 0.08,0.152 0.074,0.15C0.068,0.147 0.062,0.144 0.057,0.141C0.051,0.138 0.045,0.135 0.039,0.133C0.028,0.128 0.019,0.121 0.013,0.112C0.007,0.103 0.003,0.092 0,0.079C-0.003,0.066 -0.004,0.053 -0.003,0.041C-0.002,0.028 0,0.015 0.002,0.002C0.014,-0.064 0.036,-0.126 0.067,-0.185C0.076,-0.2 0.084,-0.214 0.093,-0.229C0.102,-0.243 0.11,-0.257 0.119,-0.271C0.12,-0.274 0.122,-0.278 0.124,-0.281C0.126,-0.284 0.128,-0.287 0.13,-0.291C0.119,-0.29 0.112,-0.289 0.107,-0.288C0.101,-0.287 0.097,-0.287 0.094,-0.288C0.091,-0.289 0.087,-0.292 0.083,-0.297C0.079,-0.301 0.073,-0.307 0.064,-0.315C0.051,-0.327 0.043,-0.339 0.042,-0.353C0.04,-0.366 0.042,-0.38 0.047,-0.395C0.052,-0.405 0.056,-0.415 0.061,-0.426C0.066,-0.436 0.071,-0.446 0.078,-0.455C0.102,-0.489 0.129,-0.519 0.159,-0.546C0.188,-0.572 0.221,-0.594 0.257,-0.611C0.264,-0.614 0.273,-0.618 0.284,-0.623C0.295,-0.628 0.307,-0.631 0.319,-0.634C0.331,-0.637 0.342,-0.638 0.353,-0.637C0.363,-0.636 0.371,-0.632 0.376,-0.624C0.389,-0.605 0.394,-0.587 0.391,-0.568C0.388,-0.549 0.376,-0.531 0.356,-0.516ZM0.304,-0.133C0.32,-0.154 0.335,-0.172 0.35,-0.189C0.364,-0.206 0.377,-0.225 0.389,-0.246C0.377,-0.241 0.365,-0.234 0.354,-0.225C0.343,-0.216 0.333,-0.207 0.325,-0.196C0.317,-0.185 0.311,-0.174 0.307,-0.164C0.303,-0.153 0.302,-0.142 0.304,-0.133Z" style="fill:white;fill-rule:nonzero;"/>
        </g>
        <g transform="matrix(64,0,0,64,47.68,80)">
            <path d="M0.245,-0.254C0.248,-0.253 0.25,-0.251 0.252,-0.25C0.253,-0.249 0.255,-0.247 0.257,-0.246C0.257,-0.243 0.257,-0.242 0.256,-0.241C0.222,-0.197 0.19,-0.156 0.161,-0.119C0.132,-0.082 0.1,-0.046 0.066,-0.012C0.06,-0.006 0.054,-0.002 0.048,-0.001C0.041,0 0.035,0 0.029,-0.001C0.022,-0.002 0.016,-0.005 0.01,-0.008C0.004,-0.011 -0.002,-0.014 -0.008,-0.017C-0.026,-0.024 -0.037,-0.037 -0.041,-0.058C-0.046,-0.103 -0.041,-0.145 -0.026,-0.183C-0.011,-0.221 0.01,-0.256 0.035,-0.287C0.048,-0.297 0.059,-0.299 0.068,-0.293C0.076,-0.287 0.084,-0.279 0.091,-0.269C0.076,-0.247 0.065,-0.228 0.058,-0.212C0.05,-0.195 0.044,-0.179 0.041,-0.163C0.037,-0.147 0.035,-0.129 0.034,-0.11C0.033,-0.091 0.032,-0.067 0.031,-0.039C0.052,-0.054 0.071,-0.07 0.091,-0.089C0.11,-0.107 0.128,-0.126 0.146,-0.145C0.164,-0.164 0.181,-0.183 0.198,-0.202C0.214,-0.221 0.23,-0.238 0.245,-0.254ZM0.166,-0.41C0.158,-0.4 0.151,-0.392 0.144,-0.385L0.105,-0.345C0.098,-0.338 0.091,-0.329 0.083,-0.32C0.076,-0.323 0.072,-0.326 0.071,-0.331C0.07,-0.335 0.067,-0.339 0.062,-0.344C0.057,-0.35 0.056,-0.358 0.058,-0.367C0.06,-0.376 0.064,-0.385 0.069,-0.394C0.074,-0.403 0.079,-0.411 0.086,-0.419C0.093,-0.426 0.099,-0.432 0.104,-0.435C0.111,-0.438 0.118,-0.44 0.124,-0.44C0.13,-0.439 0.136,-0.438 0.141,-0.435C0.146,-0.432 0.15,-0.428 0.154,-0.424C0.158,-0.419 0.162,-0.415 0.166,-0.41Z" style="fill:white;fill-rule:nonzero;"/>
        </g>
        <g transform="matrix(64,0,0,64,59.968,80)">
            <path d="M0.262,-0.016C0.267,-0.015 0.271,-0.015 0.274,-0.016C0.277,-0.017 0.281,-0.017 0.286,-0.016C0.285,-0.013 0.284,-0.011 0.284,-0.009C0.283,-0.007 0.282,-0.005 0.281,-0.004C0.273,0.011 0.265,0.025 0.258,0.039C0.25,0.053 0.241,0.065 0.232,0.075C0.223,0.085 0.212,0.092 0.201,0.097C0.189,0.101 0.175,0.101 0.158,0.097C0.137,0.081 0.125,0.059 0.121,0.032C0.117,0.005 0.118,-0.024 0.124,-0.055C0.13,-0.085 0.14,-0.115 0.154,-0.146C0.167,-0.176 0.181,-0.202 0.195,-0.224C0.197,-0.227 0.198,-0.231 0.197,-0.236L0.182,-0.221C0.163,-0.202 0.147,-0.182 0.133,-0.161C0.118,-0.14 0.103,-0.118 0.088,-0.097C0.079,-0.083 0.069,-0.069 0.059,-0.056C0.049,-0.042 0.039,-0.028 0.029,-0.014L0.023,-0.006C0.015,0.003 0.005,0.009 -0.006,0.012C-0.017,0.014 -0.028,0.012 -0.039,0.006C-0.042,0.004 -0.045,0.001 -0.046,-0.003C-0.047,-0.008 -0.049,-0.014 -0.05,-0.019C-0.051,-0.024 -0.052,-0.03 -0.051,-0.035C-0.048,-0.081 -0.04,-0.126 -0.027,-0.169C-0.014,-0.212 0.006,-0.252 0.032,-0.291C0.037,-0.298 0.042,-0.305 0.047,-0.312C0.052,-0.318 0.058,-0.324 0.063,-0.331C0.07,-0.339 0.076,-0.343 0.079,-0.344C0.082,-0.345 0.087,-0.343 0.094,-0.34C0.099,-0.337 0.101,-0.333 0.103,-0.328C0.103,-0.323 0.103,-0.318 0.103,-0.313C0.101,-0.307 0.1,-0.301 0.098,-0.295C0.095,-0.289 0.093,-0.283 0.092,-0.278C0.083,-0.253 0.075,-0.228 0.067,-0.203C0.058,-0.178 0.05,-0.152 0.042,-0.127C0.041,-0.124 0.04,-0.12 0.039,-0.117C0.038,-0.114 0.037,-0.11 0.037,-0.107C0.05,-0.128 0.066,-0.15 0.083,-0.173C0.1,-0.195 0.119,-0.216 0.139,-0.237C0.159,-0.257 0.18,-0.276 0.202,-0.294C0.224,-0.312 0.246,-0.328 0.268,-0.341C0.273,-0.337 0.277,-0.332 0.279,-0.327C0.281,-0.321 0.285,-0.316 0.291,-0.311C0.296,-0.307 0.298,-0.303 0.298,-0.298C0.297,-0.293 0.296,-0.287 0.295,-0.282C0.288,-0.262 0.282,-0.246 0.277,-0.235C0.272,-0.224 0.267,-0.214 0.263,-0.205C0.258,-0.196 0.253,-0.186 0.248,-0.176C0.242,-0.165 0.235,-0.152 0.226,-0.135C0.22,-0.124 0.214,-0.109 0.208,-0.09C0.202,-0.071 0.197,-0.053 0.193,-0.034C0.189,-0.015 0.187,0.003 0.187,0.019C0.186,0.034 0.188,0.045 0.193,0.05C0.198,0.055 0.206,0.053 0.217,0.044C0.228,0.035 0.243,0.015 0.262,-0.016Z" style="fill:white;fill-rule:nonzero;"/>
        </g>
        <g transform="matrix(64,0,0,64,93.248,80)">
            <path d="M0.071,-0.186C0.074,-0.189 0.076,-0.193 0.079,-0.197C0.081,-0.2 0.084,-0.204 0.087,-0.207C0.104,-0.23 0.123,-0.252 0.143,-0.271C0.163,-0.29 0.186,-0.307 0.211,-0.32L0.228,-0.328C0.246,-0.335 0.263,-0.332 0.28,-0.318C0.296,-0.304 0.306,-0.289 0.309,-0.273C0.312,-0.257 0.311,-0.239 0.304,-0.22C0.293,-0.187 0.281,-0.156 0.267,-0.125C0.252,-0.094 0.235,-0.065 0.215,-0.037L0.212,-0.032C0.206,-0.024 0.201,-0.018 0.196,-0.014C0.191,-0.009 0.187,-0.006 0.182,-0.005C0.177,-0.003 0.171,-0.003 0.165,-0.005C0.158,-0.006 0.15,-0.009 0.141,-0.013L0.12,-0.022C0.108,-0.026 0.103,-0.034 0.104,-0.047C0.105,-0.062 0.108,-0.077 0.112,-0.092C0.115,-0.106 0.119,-0.121 0.124,-0.136C0.128,-0.134 0.132,-0.132 0.135,-0.131C0.138,-0.13 0.142,-0.128 0.145,-0.127L0.142,-0.074L0.145,-0.073L0.154,-0.085L0.198,-0.168C0.205,-0.181 0.213,-0.195 0.22,-0.208C0.227,-0.221 0.233,-0.234 0.24,-0.247C0.245,-0.255 0.249,-0.263 0.252,-0.272C0.255,-0.28 0.259,-0.289 0.263,-0.298C0.258,-0.3 0.253,-0.3 0.25,-0.299C0.247,-0.298 0.243,-0.296 0.24,-0.295C0.225,-0.288 0.211,-0.28 0.198,-0.271C0.185,-0.261 0.172,-0.25 0.16,-0.239C0.139,-0.218 0.12,-0.195 0.103,-0.172C0.086,-0.148 0.071,-0.123 0.057,-0.097C0.044,-0.075 0.035,-0.052 0.031,-0.029C0.025,-0.005 0.021,0.019 0.016,0.043C0.013,0.058 0.01,0.072 0.007,0.087C0.004,0.102 0.001,0.116 -0.002,0.131C-0.005,0.144 -0.009,0.157 -0.014,0.17C-0.018,0.183 -0.022,0.196 -0.027,0.209C-0.029,0.217 -0.035,0.222 -0.044,0.223C-0.047,0.223 -0.051,0.223 -0.054,0.224C-0.057,0.224 -0.061,0.224 -0.064,0.225C-0.068,0.218 -0.071,0.212 -0.072,0.205C-0.073,0.198 -0.074,0.192 -0.075,0.185C-0.078,0.164 -0.079,0.143 -0.077,0.123C-0.075,0.102 -0.072,0.082 -0.069,0.061C-0.059,0.004 -0.046,-0.051 -0.029,-0.106C-0.012,-0.161 0.006,-0.215 0.025,-0.269C0.03,-0.28 0.035,-0.292 0.042,-0.303C0.048,-0.314 0.054,-0.325 0.06,-0.336C0.063,-0.341 0.067,-0.347 0.073,-0.353C0.079,-0.36 0.085,-0.361 0.091,-0.358C0.095,-0.356 0.099,-0.354 0.102,-0.351C0.105,-0.348 0.106,-0.344 0.105,-0.338C0.104,-0.33 0.102,-0.322 0.101,-0.314C0.099,-0.306 0.097,-0.298 0.095,-0.29L0.071,-0.2L0.068,-0.188L0.071,-0.186Z" style="fill:white;fill-rule:nonzero;"/>
        </g>
        <g transform="matrix(64,0,0,64,115.712,80)">
            <path d="M0.203,-0.043C0.208,-0.048 0.214,-0.054 0.219,-0.06C0.224,-0.065 0.229,-0.071 0.234,-0.077C0.25,-0.098 0.266,-0.12 0.282,-0.141C0.297,-0.162 0.313,-0.184 0.329,-0.205C0.333,-0.21 0.337,-0.216 0.342,-0.222C0.347,-0.227 0.352,-0.234 0.358,-0.241L0.368,-0.224C0.361,-0.213 0.353,-0.201 0.346,-0.189C0.339,-0.177 0.331,-0.165 0.323,-0.154C0.31,-0.135 0.296,-0.115 0.283,-0.096C0.269,-0.076 0.255,-0.056 0.241,-0.037C0.239,-0.034 0.237,-0.031 0.235,-0.029C0.232,-0.026 0.23,-0.023 0.227,-0.02C0.22,-0.015 0.215,-0.012 0.211,-0.012C0.206,-0.011 0.2,-0.013 0.191,-0.016C0.172,-0.023 0.158,-0.034 0.15,-0.048C0.141,-0.062 0.136,-0.079 0.135,-0.098C0.134,-0.101 0.134,-0.105 0.134,-0.109C0.133,-0.112 0.132,-0.117 0.131,-0.123C0.127,-0.118 0.123,-0.113 0.12,-0.109C0.117,-0.104 0.114,-0.1 0.111,-0.096C0.102,-0.085 0.094,-0.074 0.087,-0.063C0.079,-0.051 0.07,-0.04 0.061,-0.029C0.056,-0.024 0.051,-0.019 0.046,-0.014C0.041,-0.009 0.035,-0.004 0.03,0.001C0.023,0.006 0.016,0.007 0.009,0.002C0.004,-0.001 -0.002,-0.005 -0.009,-0.008C-0.015,-0.011 -0.021,-0.014 -0.026,-0.018C-0.041,-0.029 -0.049,-0.042 -0.049,-0.059C-0.049,-0.069 -0.049,-0.079 -0.048,-0.089C-0.047,-0.099 -0.046,-0.109 -0.043,-0.118C-0.032,-0.159 -0.016,-0.196 0.005,-0.231C0.026,-0.266 0.052,-0.297 0.084,-0.325C0.094,-0.334 0.105,-0.342 0.117,-0.347C0.128,-0.352 0.141,-0.355 0.154,-0.357C0.167,-0.359 0.179,-0.359 0.191,-0.357C0.202,-0.354 0.213,-0.348 0.223,-0.339C0.232,-0.344 0.24,-0.349 0.248,-0.354C0.256,-0.359 0.266,-0.361 0.277,-0.358C0.284,-0.357 0.29,-0.353 0.293,-0.348C0.296,-0.342 0.3,-0.336 0.303,-0.33C0.274,-0.298 0.252,-0.264 0.235,-0.227C0.218,-0.19 0.206,-0.151 0.199,-0.11C0.196,-0.099 0.195,-0.088 0.196,-0.078C0.196,-0.067 0.197,-0.056 0.198,-0.045C0.199,-0.045 0.2,-0.044 0.203,-0.043ZM0.016,-0.043L0.022,-0.04C0.029,-0.047 0.036,-0.054 0.043,-0.061C0.05,-0.067 0.056,-0.074 0.063,-0.081C0.074,-0.093 0.086,-0.105 0.097,-0.118C0.108,-0.131 0.119,-0.143 0.13,-0.156C0.134,-0.161 0.137,-0.167 0.139,-0.175C0.148,-0.214 0.163,-0.253 0.186,-0.29C0.187,-0.292 0.189,-0.294 0.19,-0.297C0.191,-0.299 0.192,-0.302 0.195,-0.306C0.189,-0.304 0.184,-0.302 0.181,-0.301C0.177,-0.299 0.173,-0.297 0.17,-0.296C0.121,-0.269 0.084,-0.23 0.058,-0.179C0.049,-0.161 0.041,-0.143 0.035,-0.124C0.029,-0.105 0.024,-0.086 0.02,-0.067C0.019,-0.063 0.019,-0.059 0.019,-0.055C0.018,-0.051 0.017,-0.047 0.016,-0.043Z" style="fill:white;fill-rule:nonzero;"/>
        </g>
        <g transform="matrix(64,0,0,64,137.408,80)">
            <path d="M0.203,-0.043C0.208,-0.048 0.214,-0.054 0.219,-0.06C0.224,-0.065 0.229,-0.071 0.234,-0.077C0.25,-0.098 0.266,-0.12 0.282,-0.141C0.297,-0.162 0.313,-0.184 0.329,-0.205C0.333,-0.21 0.337,-0.216 0.342,-0.222C0.347,-0.227 0.352,-0.234 0.358,-0.241L0.368,-0.224C0.361,-0.213 0.353,-0.201 0.346,-0.189C0.339,-0.177 0.331,-0.165 0.323,-0.154C0.31,-0.135 0.296,-0.115 0.283,-0.096C0.269,-0.076 0.255,-0.056 0.241,-0.037C0.239,-0.034 0.237,-0.031 0.235,-0.029C0.232,-0.026 0.23,-0.023 0.227,-0.02C0.22,-0.015 0.215,-0.012 0.211,-0.012C0.206,-0.011 0.2,-0.013 0.191,-0.016C0.172,-0.023 0.158,-0.034 0.15,-0.048C0.141,-0.062 0.136,-0.079 0.135,-0.098C0.134,-0.101 0.134,-0.105 0.134,-0.109C0.133,-0.112 0.132,-0.117 0.131,-0.123C0.127,-0.118 0.123,-0.113 0.12,-0.109C0.117,-0.104 0.114,-0.1 0.111,-0.096C0.102,-0.085 0.094,-0.074 0.087,-0.063C0.079,-0.051 0.07,-0.04 0.061,-0.029C0.056,-0.024 0.051,-0.019 0.046,-0.014C0.041,-0.009 0.035,-0.004 0.03,0.001C0.023,0.006 0.016,0.007 0.009,0.002C0.004,-0.001 -0.002,-0.005 -0.009,-0.008C-0.015,-0.011 -0.021,-0.014 -0.026,-0.018C-0.041,-0.029 -0.049,-0.042 -0.049,-0.059C-0.049,-0.069 -0.049,-0.079 -0.048,-0.089C-0.047,-0.099 -0.046,-0.109 -0.043,-0.118C-0.032,-0.159 -0.016,-0.196 0.005,-0.231C0.026,-0.266 0.052,-0.297 0.084,-0.325C0.094,-0.334 0.105,-0.342 0.117,-0.347C0.128,-0.352 0.141,-0.355 0.154,-0.357C0.167,-0.359 0.179,-0.359 0.191,-0.357C0.202,-0.354 0.213,-0.348 0.223,-0.339C0.232,-0.344 0.24,-0.349 0.248,-0.354C0.256,-0.359 0.266,-0.361 0.277,-0.358C0.284,-0.357 0.29,-0.353 0.293,-0.348C0.296,-0.342 0.3,-0.336 0.303,-0.33C0.274,-0.298 0.252,-0.264 0.235,-0.227C0.218,-0.19 0.206,-0.151 0.199,-0.11C0.196,-0.099 0.195,-0.088 0.196,-0.078C0.196,-0.067 0.197,-0.056 0.198,-0.045C0.199,-0.045 0.2,-0.044 0.203,-0.043ZM0.016,-0.043L0.022,-0.04C0.029,-0.047 0.036,-0.054 0.043,-0.061C0.05,-0.067 0.056,-0.074 0.063,-0.081C0.074,-0.093 0.086,-0.105 0.097,-0.118C0.108,-0.131 0.119,-0.143 0.13,-0.156C0.134,-0.161 0.137,-0.167 0.139,-0.175C0.148,-0.214 0.163,-0.253 0.186,-0.29C0.187,-0.292 0.189,-0.294 0.19,-0.297C0.191,-0.299 0.192,-0.302 0.195,-0.306C0.189,-0.304 0.184,-0.302 0.181,-0.301C0.177,-0.299 0.173,-0.297 0.17,-0.296C0.121,-0.269 0.084,-0.23 0.058,-0.179C0.049,-0.161 0.041,-0.143 0.035,-0.124C0.029,-0.105 0.024,-0.086 0.02,-0.067C0.019,-0.063 0.019,-0.059 0.019,-0.055C0.018,-0.051 0.017,-0.047 0.016,-0.043Z" style="fill:white;fill-rule:nonzero;"/>
        </g>
        <g transform="matrix(64,0,0,64,159.104,80)">
            <path d="M0.057,-0.203C0.064,-0.204 0.071,-0.207 0.076,-0.21C0.081,-0.213 0.085,-0.217 0.089,-0.221C0.1,-0.232 0.11,-0.244 0.12,-0.255C0.129,-0.266 0.139,-0.277 0.149,-0.288C0.161,-0.301 0.174,-0.301 0.187,-0.289C0.191,-0.286 0.193,-0.282 0.194,-0.278C0.195,-0.274 0.194,-0.27 0.193,-0.265C0.188,-0.249 0.183,-0.233 0.178,-0.217C0.173,-0.201 0.168,-0.185 0.163,-0.17C0.156,-0.149 0.15,-0.127 0.147,-0.106C0.144,-0.085 0.141,-0.063 0.139,-0.042C0.139,-0.041 0.139,-0.039 0.14,-0.038C0.14,-0.037 0.14,-0.035 0.141,-0.032C0.15,-0.037 0.158,-0.042 0.165,-0.048C0.171,-0.053 0.177,-0.059 0.183,-0.066C0.202,-0.086 0.222,-0.106 0.242,-0.126C0.262,-0.146 0.282,-0.166 0.301,-0.185L0.31,-0.194C0.313,-0.193 0.315,-0.191 0.318,-0.19C0.32,-0.189 0.322,-0.187 0.324,-0.186C0.323,-0.185 0.323,-0.184 0.324,-0.183C0.324,-0.182 0.324,-0.182 0.323,-0.181C0.306,-0.158 0.289,-0.134 0.272,-0.111C0.255,-0.087 0.237,-0.065 0.216,-0.044C0.209,-0.037 0.201,-0.03 0.194,-0.023C0.186,-0.016 0.178,-0.01 0.17,-0.004C0.157,0.007 0.144,0.008 0.13,0L0.115,-0.007C0.1,-0.01 0.091,-0.017 0.086,-0.027C0.081,-0.037 0.077,-0.049 0.076,-0.062C0.075,-0.079 0.076,-0.096 0.079,-0.113C0.082,-0.129 0.086,-0.145 0.09,-0.161C0.091,-0.164 0.092,-0.168 0.093,-0.171C0.094,-0.174 0.095,-0.177 0.096,-0.181C0.093,-0.18 0.09,-0.179 0.086,-0.178C0.073,-0.172 0.061,-0.173 0.049,-0.18C0.044,-0.183 0.038,-0.185 0.032,-0.187C0.014,-0.196 0.003,-0.21 -0.001,-0.231C-0.005,-0.25 -0.006,-0.269 -0.004,-0.288C-0.002,-0.306 0.003,-0.324 0.01,-0.341C0.019,-0.362 0.03,-0.381 0.042,-0.4C0.053,-0.418 0.068,-0.434 0.087,-0.447C0.09,-0.449 0.092,-0.451 0.095,-0.453C0.097,-0.455 0.099,-0.457 0.102,-0.458C0.115,-0.465 0.125,-0.467 0.134,-0.465C0.142,-0.462 0.15,-0.455 0.157,-0.443C0.16,-0.439 0.16,-0.435 0.159,-0.432C0.158,-0.429 0.156,-0.425 0.155,-0.422C0.144,-0.403 0.131,-0.382 0.118,-0.36C0.105,-0.339 0.094,-0.317 0.085,-0.294C0.076,-0.271 0.068,-0.247 0.061,-0.223C0.06,-0.219 0.058,-0.212 0.057,-0.203Z" style="fill:white;fill-rule:nonzero;"/>
        </g>
        <g transform="matrix(64,0,0,64,190.592,80)">
            <path d="M0.411,-0.46L0.44,-0.439C0.435,-0.42 0.429,-0.402 0.424,-0.385C0.419,-0.368 0.414,-0.35 0.41,-0.333C0.397,-0.284 0.386,-0.236 0.377,-0.187C0.368,-0.137 0.362,-0.088 0.361,-0.037C0.361,-0.024 0.361,-0.01 0.362,0.003C0.362,0.016 0.362,0.03 0.363,0.043C0.364,0.048 0.365,0.053 0.367,0.058C0.368,0.063 0.37,0.069 0.371,0.076C0.38,0.069 0.386,0.064 0.391,0.059C0.404,0.045 0.416,0.03 0.427,0.015C0.438,0 0.448,-0.017 0.455,-0.034C0.48,-0.092 0.504,-0.15 0.525,-0.209C0.546,-0.267 0.564,-0.327 0.578,-0.389C0.585,-0.42 0.59,-0.451 0.593,-0.482C0.595,-0.513 0.594,-0.545 0.591,-0.577C0.59,-0.588 0.588,-0.6 0.586,-0.611C0.583,-0.622 0.578,-0.632 0.571,-0.642C0.582,-0.638 0.592,-0.632 0.6,-0.625C0.608,-0.618 0.613,-0.608 0.616,-0.597C0.619,-0.582 0.622,-0.566 0.625,-0.551C0.628,-0.535 0.63,-0.519 0.633,-0.503C0.638,-0.47 0.639,-0.437 0.635,-0.405C0.631,-0.372 0.625,-0.34 0.617,-0.307C0.604,-0.254 0.588,-0.202 0.569,-0.152C0.55,-0.101 0.528,-0.052 0.503,-0.003C0.496,0.01 0.488,0.023 0.48,0.036C0.472,0.049 0.463,0.061 0.454,0.074C0.451,0.079 0.447,0.084 0.442,0.089C0.437,0.094 0.432,0.098 0.427,0.102C0.414,0.113 0.4,0.116 0.384,0.112C0.375,0.11 0.365,0.108 0.356,0.107C0.347,0.105 0.337,0.103 0.328,0.102C0.306,0.097 0.289,0.084 0.277,0.065C0.264,0.039 0.256,0.013 0.254,-0.014C0.254,-0.025 0.252,-0.035 0.249,-0.044C0.248,-0.042 0.246,-0.04 0.245,-0.038C0.244,-0.036 0.242,-0.034 0.241,-0.031C0.236,-0.021 0.231,-0.011 0.226,-0.001C0.221,0.009 0.216,0.019 0.211,0.029C0.204,0.042 0.196,0.055 0.187,0.068C0.182,0.075 0.177,0.081 0.174,0.085C0.17,0.089 0.166,0.092 0.162,0.094C0.157,0.095 0.152,0.095 0.147,0.095C0.142,0.093 0.135,0.092 0.126,0.089C0.125,0.088 0.123,0.088 0.121,0.088C0.102,0.084 0.088,0.076 0.079,0.063C0.07,0.05 0.065,0.034 0.063,0.016C0.06,-0.005 0.059,-0.027 0.063,-0.049C0.066,-0.07 0.069,-0.092 0.074,-0.113C0.085,-0.172 0.101,-0.228 0.121,-0.283C0.141,-0.338 0.163,-0.392 0.186,-0.446C0.191,-0.457 0.195,-0.468 0.2,-0.48C0.205,-0.491 0.209,-0.502 0.213,-0.513C0.216,-0.518 0.218,-0.524 0.219,-0.53C0.22,-0.535 0.222,-0.542 0.224,-0.549C0.219,-0.548 0.215,-0.547 0.212,-0.547C0.209,-0.547 0.205,-0.546 0.202,-0.545C0.117,-0.514 0.062,-0.455 0.038,-0.37C0.035,-0.361 0.033,-0.351 0.034,-0.342C0.034,-0.332 0.033,-0.322 0.032,-0.313C0.025,-0.314 0.018,-0.318 0.011,-0.325C0.004,-0.331 0,-0.34 -0.002,-0.351C-0.003,-0.358 -0.004,-0.366 -0.004,-0.373C-0.003,-0.38 -0.002,-0.387 0,-0.394C0.011,-0.439 0.031,-0.476 0.06,-0.506C0.088,-0.536 0.122,-0.561 0.163,-0.58L0.184,-0.587C0.195,-0.59 0.206,-0.591 0.216,-0.589C0.226,-0.586 0.236,-0.581 0.246,-0.574C0.264,-0.562 0.276,-0.548 0.281,-0.532C0.286,-0.516 0.286,-0.498 0.282,-0.479C0.279,-0.467 0.275,-0.455 0.272,-0.443C0.269,-0.43 0.265,-0.418 0.261,-0.406C0.25,-0.371 0.238,-0.336 0.227,-0.301C0.215,-0.266 0.204,-0.231 0.193,-0.195C0.185,-0.167 0.178,-0.139 0.172,-0.112C0.165,-0.084 0.159,-0.056 0.153,-0.028C0.15,-0.017 0.149,-0.007 0.148,0.005C0.147,0.016 0.146,0.027 0.145,0.038C0.15,0.037 0.154,0.034 0.157,0.031C0.159,0.028 0.161,0.024 0.163,0.021L0.223,-0.083C0.237,-0.107 0.249,-0.132 0.26,-0.157C0.27,-0.182 0.278,-0.209 0.284,-0.237C0.289,-0.26 0.295,-0.283 0.304,-0.306C0.313,-0.328 0.323,-0.35 0.334,-0.371C0.346,-0.392 0.358,-0.411 0.371,-0.428C0.376,-0.435 0.381,-0.441 0.388,-0.447C0.394,-0.452 0.402,-0.457 0.411,-0.46Z" style="fill:white;fill-rule:nonzero;"/>
        </g>
        <g transform="matrix(64,0,0,64,232.256,80)">
            <path d="M0.131,-0.329C0.146,-0.342 0.164,-0.346 0.185,-0.341C0.196,-0.338 0.205,-0.334 0.214,-0.328C0.223,-0.321 0.231,-0.314 0.238,-0.305C0.25,-0.29 0.253,-0.272 0.248,-0.251C0.244,-0.236 0.24,-0.221 0.235,-0.207C0.23,-0.192 0.225,-0.178 0.219,-0.164C0.209,-0.142 0.198,-0.121 0.185,-0.101C0.171,-0.08 0.156,-0.061 0.139,-0.044C0.132,-0.037 0.126,-0.031 0.119,-0.026C0.112,-0.02 0.104,-0.014 0.097,-0.008C0.091,-0.003 0.085,0 0.078,0.002C0.071,0.004 0.064,0.004 0.057,0.002C0.046,-0.001 0.036,-0.004 0.025,-0.007C0.014,-0.01 0.004,-0.013 -0.005,-0.018C-0.018,-0.025 -0.029,-0.035 -0.036,-0.048C-0.043,-0.06 -0.047,-0.074 -0.047,-0.089C-0.048,-0.131 -0.044,-0.171 -0.033,-0.209C-0.022,-0.246 0,-0.28 0.031,-0.311C0.04,-0.321 0.051,-0.33 0.066,-0.339C0.075,-0.345 0.085,-0.348 0.094,-0.348C0.103,-0.348 0.113,-0.344 0.122,-0.335C0.124,-0.333 0.127,-0.331 0.131,-0.329ZM0.036,-0.024C0.041,-0.027 0.047,-0.03 0.052,-0.033C0.057,-0.036 0.062,-0.039 0.066,-0.042C0.074,-0.049 0.082,-0.057 0.09,-0.065C0.097,-0.072 0.104,-0.08 0.111,-0.089C0.124,-0.108 0.137,-0.127 0.15,-0.146C0.163,-0.165 0.175,-0.184 0.187,-0.203C0.191,-0.21 0.195,-0.218 0.198,-0.225C0.201,-0.232 0.204,-0.24 0.206,-0.248C0.209,-0.257 0.212,-0.267 0.213,-0.277C0.214,-0.287 0.211,-0.297 0.206,-0.307C0.199,-0.308 0.193,-0.308 0.188,-0.305C0.183,-0.302 0.177,-0.299 0.172,-0.295C0.146,-0.275 0.124,-0.249 0.107,-0.217L0.093,-0.191C0.088,-0.194 0.084,-0.197 0.08,-0.2C0.076,-0.203 0.072,-0.205 0.068,-0.208C0.072,-0.218 0.076,-0.228 0.079,-0.238C0.082,-0.247 0.086,-0.257 0.09,-0.267C0.086,-0.265 0.084,-0.264 0.083,-0.263C0.064,-0.235 0.048,-0.206 0.037,-0.176C0.025,-0.145 0.019,-0.112 0.019,-0.077C0.02,-0.068 0.021,-0.059 0.023,-0.051C0.024,-0.042 0.029,-0.033 0.036,-0.024Z" style="fill:white;fill-rule:nonzero;"/>
        </g>
        <g transform="matrix(64,0,0,64,250.56,80)">
            <path d="M0.057,-0.203C0.064,-0.204 0.071,-0.207 0.076,-0.21C0.081,-0.213 0.085,-0.217 0.089,-0.221C0.1,-0.232 0.11,-0.244 0.12,-0.255C0.129,-0.266 0.139,-0.277 0.149,-0.288C0.161,-0.301 0.174,-0.301 0.187,-0.289C0.191,-0.286 0.193,-0.282 0.194,-0.278C0.195,-0.274 0.194,-0.27 0.193,-0.265C0.188,-0.249 0.183,-0.233 0.178,-0.217C0.173,-0.201 0.168,-0.185 0.163,-0.17C0.156,-0.149 0.15,-0.127 0.147,-0.106C0.144,-0.085 0.141,-0.063 0.139,-0.042C0.139,-0.041 0.139,-0.039 0.14,-0.038C0.14,-0.037 0.14,-0.035 0.141,-0.032C0.15,-0.037 0.158,-0.042 0.165,-0.048C0.171,-0.053 0.177,-0.059 0.183,-0.066C0.202,-0.086 0.222,-0.106 0.242,-0.126C0.262,-0.146 0.282,-0.166 0.301,-0.185L0.31,-0.194C0.313,-0.193 0.315,-0.191 0.318,-0.19C0.32,-0.189 0.322,-0.187 0.324,-0.186C0.323,-0.185 0.323,-0.184 0.324,-0.183C0.324,-0.182 0.324,-0.182 0.323,-0.181C0.306,-0.158 0.289,-0.134 0.272,-0.111C0.255,-0.087 0.237,-0.065 0.216,-0.044C0.209,-0.037 0.201,-0.03 0.194,-0.023C0.186,-0.016 0.178,-0.01 0.17,-0.004C0.157,0.007 0.144,0.008 0.13,0L0.115,-0.007C0.1,-0.01 0.091,-0.017 0.086,-0.027C0.081,-0.037 0.077,-0.049 0.076,-0.062C0.075,-0.079 0.076,-0.096 0.079,-0.113C0.082,-0.129 0.086,-0.145 0.09,-0.161C0.091,-0.164 0.092,-0.168 0.093,-0.171C0.094,-0.174 0.095,-0.177 0.096,-0.181C0.093,-0.18 0.09,-0.179 0.086,-0.178C0.073,-0.172 0.061,-0.173 0.049,-0.18C0.044,-0.183 0.038,-0.185 0.032,-0.187C0.014,-0.196 0.003,-0.21 -0.001,-0.231C-0.005,-0.25 -0.006,-0.269 -0.004,-0.288C-0.002,-0.306 0.003,-0.324 0.01,-0.341C0.019,-0.362 0.03,-0.381 0.042,-0.4C0.053,-0.418 0.068,-0.434 0.087,-0.447C0.09,-0.449 0.092,-0.451 0.095,-0.453C0.097,-0.455 0.099,-0.457 0.102,-0.458C0.115,-0.465 0.125,-0.467 0.134,-0.465C0.142,-0.462 0.15,-0.455 0.157,-0.443C0.16,-0.439 0.16,-0.435 0.159,-0.432C0.158,-0.429 0.156,-0.425 0.155,-0.422C0.144,-0.403 0.131,-0.382 0.118,-0.36C0.105,-0.339 0.094,-0.317 0.085,-0.294C0.076,-0.271 0.068,-0.247 0.061,-0.223C0.06,-0.219 0.058,-0.212 0.057,-0.203Z" style="fill:white;fill-rule:nonzero;"/>
        </g>
        <g transform="matrix(64,0,0,64,269.184,80)">
            <path d="M-0.006,0.177C-0.014,0.177 -0.019,0.176 -0.022,0.174C-0.024,0.171 -0.029,0.17 -0.036,0.17C-0.037,0.167 -0.038,0.164 -0.039,0.161C-0.04,0.158 -0.04,0.156 -0.041,0.153C-0.046,0.125 -0.048,0.098 -0.048,0.071C-0.047,0.044 -0.046,0.017 -0.043,-0.01C-0.036,-0.079 -0.026,-0.146 -0.011,-0.212C0.004,-0.278 0.023,-0.343 0.047,-0.408C0.048,-0.41 0.048,-0.412 0.049,-0.414C0.049,-0.416 0.05,-0.419 0.051,-0.422C0.048,-0.422 0.045,-0.422 0.042,-0.423C0.039,-0.423 0.037,-0.423 0.034,-0.423C0.022,-0.424 0.01,-0.426 -0.002,-0.427C-0.014,-0.428 -0.026,-0.429 -0.039,-0.431C-0.054,-0.434 -0.066,-0.44 -0.077,-0.449C-0.087,-0.458 -0.096,-0.468 -0.103,-0.481L-0.106,-0.49C-0.107,-0.491 -0.106,-0.494 -0.105,-0.497C-0.104,-0.496 -0.102,-0.495 -0.102,-0.495C-0.1,-0.495 -0.1,-0.494 -0.099,-0.493C-0.094,-0.485 -0.089,-0.48 -0.082,-0.477C-0.075,-0.474 -0.067,-0.472 -0.059,-0.471C-0.038,-0.469 -0.017,-0.469 0.004,-0.471C0.024,-0.472 0.044,-0.476 0.064,-0.483C0.069,-0.484 0.073,-0.487 0.076,-0.49C0.079,-0.493 0.081,-0.496 0.084,-0.501C0.093,-0.519 0.103,-0.537 0.113,-0.555C0.122,-0.573 0.132,-0.591 0.143,-0.608C0.147,-0.615 0.152,-0.622 0.158,-0.629C0.163,-0.636 0.17,-0.641 0.177,-0.646L0.183,-0.644C0.193,-0.637 0.199,-0.632 0.202,-0.628C0.205,-0.624 0.206,-0.62 0.205,-0.616C0.204,-0.612 0.201,-0.607 0.198,-0.602C0.194,-0.597 0.19,-0.59 0.187,-0.581C0.183,-0.571 0.179,-0.561 0.175,-0.551C0.17,-0.54 0.165,-0.529 0.16,-0.517C0.165,-0.518 0.168,-0.519 0.171,-0.52C0.174,-0.52 0.177,-0.521 0.18,-0.522C0.201,-0.531 0.225,-0.54 0.251,-0.551C0.276,-0.562 0.3,-0.571 0.321,-0.579C0.328,-0.582 0.334,-0.584 0.341,-0.586C0.347,-0.587 0.353,-0.589 0.36,-0.59C0.369,-0.592 0.376,-0.588 0.379,-0.579C0.38,-0.576 0.382,-0.571 0.385,-0.566C0.39,-0.556 0.392,-0.549 0.391,-0.545C0.39,-0.541 0.384,-0.536 0.375,-0.531C0.369,-0.528 0.363,-0.524 0.357,-0.521C0.351,-0.518 0.345,-0.515 0.338,-0.513C0.309,-0.502 0.28,-0.491 0.251,-0.481C0.222,-0.47 0.193,-0.46 0.163,-0.45C0.151,-0.445 0.143,-0.437 0.14,-0.426C0.119,-0.363 0.099,-0.298 0.08,-0.232C0.06,-0.165 0.044,-0.099 0.032,-0.034C0.026,-0.002 0.02,0.029 0.015,0.061C0.01,0.091 0.004,0.123 -0.001,0.155C-0.002,0.158 -0.002,0.162 -0.003,0.165C-0.004,0.168 -0.005,0.172 -0.006,0.177Z" style="fill:white;fill-rule:nonzero;"/>
        </g>
        <g transform="matrix(64,0,0,64,277.312,80)">
            <path d="M0.039,-0.152C0.037,-0.134 0.036,-0.117 0.037,-0.101C0.037,-0.085 0.04,-0.069 0.046,-0.054C0.049,-0.045 0.052,-0.039 0.055,-0.038C0.058,-0.036 0.064,-0.036 0.073,-0.037C0.09,-0.038 0.104,-0.044 0.115,-0.053C0.13,-0.067 0.146,-0.081 0.162,-0.095C0.177,-0.108 0.193,-0.122 0.208,-0.136C0.225,-0.151 0.242,-0.167 0.259,-0.184C0.275,-0.2 0.291,-0.216 0.308,-0.232C0.312,-0.236 0.316,-0.238 0.321,-0.239C0.325,-0.239 0.33,-0.238 0.336,-0.236C0.334,-0.233 0.332,-0.23 0.331,-0.227C0.329,-0.224 0.327,-0.222 0.325,-0.219C0.302,-0.192 0.279,-0.166 0.257,-0.14C0.234,-0.113 0.211,-0.087 0.188,-0.061C0.181,-0.053 0.173,-0.046 0.165,-0.039C0.157,-0.032 0.149,-0.025 0.14,-0.018C0.128,-0.009 0.116,-0.003 0.103,-0.001C0.09,0.001 0.076,-0.002 0.062,-0.011C0.053,-0.017 0.043,-0.023 0.034,-0.029C0.024,-0.035 0.014,-0.041 0.005,-0.046C-0.008,-0.055 -0.018,-0.065 -0.024,-0.077C-0.03,-0.088 -0.034,-0.101 -0.035,-0.116C-0.045,-0.209 -0.013,-0.282 0.06,-0.335L0.082,-0.35C0.091,-0.357 0.1,-0.362 0.11,-0.364C0.12,-0.366 0.131,-0.366 0.142,-0.365C0.145,-0.365 0.149,-0.364 0.153,-0.363C0.156,-0.361 0.159,-0.359 0.161,-0.356C0.169,-0.346 0.177,-0.336 0.185,-0.326C0.193,-0.316 0.2,-0.305 0.207,-0.294C0.214,-0.282 0.217,-0.27 0.217,-0.257C0.216,-0.244 0.213,-0.232 0.208,-0.219C0.201,-0.2 0.19,-0.185 0.177,-0.172C0.163,-0.159 0.147,-0.148 0.13,-0.139C0.117,-0.132 0.103,-0.129 0.09,-0.13C0.077,-0.131 0.064,-0.136 0.051,-0.145C0.05,-0.146 0.048,-0.147 0.047,-0.148C0.045,-0.149 0.042,-0.15 0.039,-0.152ZM0.044,-0.169C0.077,-0.166 0.105,-0.175 0.127,-0.196C0.139,-0.207 0.149,-0.22 0.157,-0.233C0.164,-0.246 0.171,-0.261 0.176,-0.276C0.177,-0.28 0.178,-0.284 0.179,-0.289C0.18,-0.294 0.18,-0.299 0.181,-0.304C0.182,-0.308 0.181,-0.311 0.178,-0.313C0.175,-0.315 0.172,-0.316 0.168,-0.315C0.165,-0.315 0.161,-0.314 0.156,-0.313C0.143,-0.31 0.131,-0.305 0.122,-0.297C0.113,-0.289 0.104,-0.28 0.095,-0.271C0.082,-0.258 0.071,-0.242 0.064,-0.225C0.056,-0.208 0.049,-0.189 0.044,-0.169Z" style="fill:white;fill-rule:nonzero;"/>
        </g>
    </g>
</svg>
