<?xml version="1.0" encoding="UTF-8" standalone="no"?>
<!DOCTYPE svg PUBLIC "-//W3C//DTD SVG 1.1//EN" "http://www.w3.org/Graphics/SVG/1.1/DTD/svg11.dtd">
<svg width="100%" height="100%" viewBox="0 0 300 100" version="1.1" xmlns="http://www.w3.org/2000/svg" xmlns:xlink="http://www.w3.org/1999/xlink" xml:space="preserve" xmlns:serif="http://www.serif.com/" style="fill-rule:evenodd;clip-rule:evenodd;stroke-linejoin:round;stroke-miterlimit:2;">
    <g transform="matrix(1,0,0,1,2,-21)">
        <g transform="matrix(36,0,0,36,16,80)">
            <path d="M0.232,-0.571C0.22,-0.567 0.208,-0.563 0.197,-0.56C0.186,-0.556 0.175,-0.551 0.165,-0.546C0.154,-0.542 0.145,-0.542 0.138,-0.547C0.131,-0.551 0.126,-0.558 0.121,-0.568C0.123,-0.575 0.133,-0.583 0.152,-0.592C0.171,-0.601 0.192,-0.61 0.217,-0.619C0.241,-0.627 0.265,-0.634 0.29,-0.641C0.315,-0.648 0.334,-0.652 0.349,-0.654L0.367,-0.654C0.371,-0.654 0.375,-0.653 0.378,-0.651C0.381,-0.649 0.383,-0.646 0.386,-0.642C0.388,-0.638 0.391,-0.632 0.394,-0.625C0.395,-0.622 0.395,-0.62 0.392,-0.618C0.389,-0.615 0.385,-0.613 0.38,-0.611C0.375,-0.609 0.369,-0.607 0.364,-0.605C0.358,-0.603 0.353,-0.602 0.349,-0.601C0.338,-0.599 0.327,-0.595 0.318,-0.589C0.309,-0.582 0.302,-0.574 0.299,-0.565C0.282,-0.506 0.266,-0.447 0.25,-0.388C0.234,-0.329 0.22,-0.27 0.207,-0.209C0.202,-0.184 0.197,-0.158 0.193,-0.132C0.189,-0.106 0.185,-0.08 0.181,-0.054C0.18,-0.049 0.18,-0.044 0.18,-0.039L0.18,-0.023C0.185,-0.024 0.191,-0.024 0.196,-0.025C0.201,-0.026 0.206,-0.026 0.211,-0.026C0.218,-0.027 0.223,-0.027 0.227,-0.027C0.231,-0.027 0.234,-0.026 0.237,-0.025C0.24,-0.023 0.242,-0.02 0.245,-0.017C0.247,-0.013 0.25,-0.008 0.254,-0.001C0.253,0.002 0.251,0.005 0.246,0.006C0.241,0.007 0.237,0.009 0.233,0.01C0.202,0.021 0.171,0.031 0.141,0.041C0.11,0.051 0.08,0.061 0.05,0.072C0.043,0.075 0.037,0.077 0.033,0.078C0.028,0.079 0.024,0.078 0.021,0.077C0.018,0.076 0.014,0.073 0.012,0.07C0.009,0.066 0.005,0.06 0,0.053C0.013,0.042 0.026,0.034 0.041,0.027C0.055,0.02 0.068,0.013 0.081,0.006C0.087,-0.087 0.102,-0.177 0.127,-0.264C0.151,-0.35 0.18,-0.436 0.214,-0.521C0.216,-0.525 0.218,-0.53 0.22,-0.535L0.231,-0.564C0.232,-0.567 0.233,-0.57 0.232,-0.571Z" style="fill:white;fill-rule:nonzero;"/>
        </g>
        <g transform="matrix(36,0,0,36,27.628,80)">
            <path d="M0.049,-0.135C0.076,-0.17 0.105,-0.202 0.134,-0.231C0.163,-0.26 0.196,-0.282 0.235,-0.297C0.244,-0.3 0.253,-0.3 0.26,-0.297C0.267,-0.293 0.273,-0.288 0.277,-0.281C0.281,-0.274 0.283,-0.266 0.284,-0.257C0.285,-0.248 0.283,-0.24 0.28,-0.233C0.253,-0.172 0.228,-0.114 0.207,-0.057C0.185,0.001 0.17,0.06 0.161,0.122L0.161,0.134C0.184,0.103 0.207,0.074 0.23,0.045C0.252,0.016 0.274,-0.014 0.297,-0.044C0.301,-0.042 0.305,-0.04 0.308,-0.039C0.311,-0.037 0.315,-0.035 0.318,-0.033C0.301,0 0.282,0.031 0.26,0.061C0.238,0.091 0.217,0.121 0.197,0.151C0.194,0.155 0.191,0.16 0.187,0.165C0.181,0.173 0.176,0.179 0.173,0.184C0.169,0.188 0.165,0.191 0.161,0.192C0.157,0.193 0.152,0.192 0.147,0.191C0.142,0.19 0.134,0.187 0.125,0.184C0.118,0.181 0.112,0.178 0.107,0.174C0.102,0.169 0.1,0.163 0.099,0.156C0.098,0.145 0.096,0.133 0.095,0.122C0.094,0.11 0.094,0.098 0.095,0.087C0.097,0.061 0.101,0.035 0.106,0.011C0.111,-0.014 0.119,-0.039 0.128,-0.062C0.14,-0.092 0.153,-0.121 0.167,-0.15C0.18,-0.178 0.195,-0.206 0.211,-0.233C0.216,-0.241 0.221,-0.25 0.226,-0.26C0.217,-0.26 0.206,-0.256 0.195,-0.248C0.183,-0.239 0.171,-0.23 0.161,-0.219C0.15,-0.208 0.139,-0.196 0.13,-0.185C0.121,-0.174 0.114,-0.165 0.109,-0.158C0.09,-0.132 0.072,-0.107 0.056,-0.083C0.039,-0.058 0.024,-0.033 0.01,-0.008C-0.003,0.012 -0.019,0.015 -0.04,0.002C-0.047,-0.003 -0.05,-0.01 -0.049,-0.019C-0.046,-0.034 -0.044,-0.05 -0.043,-0.066C-0.041,-0.081 -0.038,-0.097 -0.035,-0.112C-0.026,-0.15 -0.016,-0.187 -0.003,-0.224C0.01,-0.261 0.025,-0.297 0.042,-0.332C0.025,-0.334 0.01,-0.341 -0.001,-0.352C-0.012,-0.363 -0.021,-0.375 -0.026,-0.39C-0.031,-0.405 -0.034,-0.42 -0.033,-0.437C-0.032,-0.453 -0.028,-0.467 -0.021,-0.48C-0.016,-0.479 -0.013,-0.476 -0.013,-0.472C-0.012,-0.468 -0.012,-0.464 -0.012,-0.461C-0.013,-0.448 -0.013,-0.435 -0.012,-0.423C-0.01,-0.41 -0.006,-0.399 -0.001,-0.39C0.004,-0.381 0.012,-0.373 0.021,-0.368C0.03,-0.362 0.042,-0.359 0.056,-0.36C0.058,-0.363 0.06,-0.367 0.062,-0.37C0.064,-0.373 0.066,-0.376 0.067,-0.379C0.08,-0.401 0.095,-0.422 0.111,-0.442C0.126,-0.462 0.145,-0.48 0.166,-0.495C0.177,-0.502 0.189,-0.508 0.203,-0.513C0.217,-0.517 0.229,-0.514 0.24,-0.503C0.245,-0.498 0.249,-0.493 0.254,-0.488C0.258,-0.483 0.262,-0.477 0.265,-0.471C0.266,-0.468 0.267,-0.465 0.268,-0.461C0.268,-0.457 0.268,-0.453 0.267,-0.45C0.264,-0.433 0.257,-0.418 0.246,-0.406C0.235,-0.394 0.223,-0.383 0.209,-0.374C0.198,-0.367 0.186,-0.36 0.173,-0.354C0.16,-0.347 0.148,-0.341 0.135,-0.336C0.13,-0.333 0.126,-0.331 0.123,-0.329C0.12,-0.326 0.117,-0.322 0.115,-0.317C0.104,-0.288 0.094,-0.259 0.083,-0.23C0.072,-0.201 0.062,-0.172 0.051,-0.143C0.05,-0.142 0.05,-0.14 0.05,-0.139C0.05,-0.138 0.05,-0.136 0.049,-0.135ZM0.15,-0.384C0.16,-0.388 0.17,-0.394 0.181,-0.401C0.192,-0.408 0.202,-0.417 0.211,-0.426C0.22,-0.435 0.227,-0.444 0.233,-0.453C0.238,-0.462 0.241,-0.469 0.242,-0.476C0.228,-0.477 0.213,-0.468 0.196,-0.452C0.179,-0.435 0.163,-0.412 0.15,-0.384Z" style="fill:white;fill-rule:nonzero;"/>
        </g>
        <g transform="matrix(36,0,0,36,39.328,80)">
            <path d="M0.057,-0.203C0.064,-0.204 0.071,-0.207 0.076,-0.21C0.081,-0.213 0.085,-0.217 0.089,-0.221C0.1,-0.232 0.11,-0.244 0.12,-0.255C0.129,-0.266 0.139,-0.277 0.149,-0.288C0.161,-0.301 0.174,-0.301 0.187,-0.289C0.191,-0.286 0.193,-0.282 0.194,-0.278C0.195,-0.274 0.194,-0.27 0.193,-0.265C0.188,-0.249 0.183,-0.233 0.178,-0.217C0.173,-0.201 0.168,-0.185 0.163,-0.17C0.156,-0.149 0.15,-0.127 0.147,-0.106C0.144,-0.085 0.141,-0.063 0.139,-0.042C0.139,-0.041 0.139,-0.039 0.14,-0.038C0.14,-0.037 0.14,-0.035 0.141,-0.032C0.15,-0.037 0.158,-0.042 0.165,-0.048C0.171,-0.053 0.177,-0.059 0.183,-0.066C0.202,-0.086 0.222,-0.106 0.242,-0.126C0.262,-0.146 0.282,-0.166 0.301,-0.185L0.31,-0.194C0.313,-0.193 0.315,-0.191 0.318,-0.19C0.32,-0.189 0.322,-0.187 0.324,-0.186C0.323,-0.185 0.323,-0.184 0.324,-0.183C0.324,-0.182 0.324,-0.182 0.323,-0.181C0.306,-0.158 0.289,-0.134 0.272,-0.111C0.255,-0.087 0.237,-0.065 0.216,-0.044C0.209,-0.037 0.201,-0.03 0.194,-0.023C0.186,-0.016 0.178,-0.01 0.17,-0.004C0.157,0.007 0.144,0.008 0.13,0L0.115,-0.007C0.1,-0.01 0.091,-0.017 0.086,-0.027C0.081,-0.037 0.077,-0.049 0.076,-0.062C0.075,-0.079 0.076,-0.096 0.079,-0.113C0.082,-0.129 0.086,-0.145 0.09,-0.161C0.091,-0.164 0.092,-0.168 0.093,-0.171C0.094,-0.174 0.095,-0.177 0.096,-0.181C0.093,-0.18 0.09,-0.179 0.086,-0.178C0.073,-0.172 0.061,-0.173 0.049,-0.18C0.044,-0.183 0.038,-0.185 0.032,-0.187C0.014,-0.196 0.003,-0.21 -0.001,-0.231C-0.005,-0.25 -0.006,-0.269 -0.004,-0.288C-0.002,-0.306 0.003,-0.324 0.01,-0.341C0.019,-0.362 0.03,-0.381 0.042,-0.4C0.053,-0.418 0.068,-0.434 0.087,-0.447C0.09,-0.449 0.092,-0.451 0.095,-0.453C0.097,-0.455 0.099,-0.457 0.102,-0.458C0.115,-0.465 0.125,-0.467 0.134,-0.465C0.142,-0.462 0.15,-0.455 0.157,-0.443C0.16,-0.439 0.16,-0.435 0.159,-0.432C0.158,-0.429 0.156,-0.425 0.155,-0.422C0.144,-0.403 0.131,-0.382 0.118,-0.36C0.105,-0.339 0.094,-0.317 0.085,-0.294C0.076,-0.271 0.068,-0.247 0.061,-0.223C0.06,-0.219 0.058,-0.212 0.057,-0.203Z" style="fill:white;fill-rule:nonzero;"/>
        </g>
        <g transform="matrix(36,0,0,36,57.04,80)">
            <path d="M0.306,-0.477C0.265,-0.456 0.229,-0.431 0.198,-0.403C0.167,-0.374 0.144,-0.341 0.13,-0.303C0.123,-0.305 0.119,-0.308 0.117,-0.313C0.115,-0.318 0.115,-0.323 0.116,-0.328C0.121,-0.359 0.134,-0.387 0.154,-0.41C0.191,-0.451 0.233,-0.484 0.278,-0.51C0.323,-0.535 0.373,-0.552 0.428,-0.559C0.456,-0.562 0.481,-0.563 0.503,-0.56C0.524,-0.557 0.543,-0.545 0.559,-0.526C0.58,-0.502 0.592,-0.476 0.597,-0.45C0.601,-0.423 0.601,-0.394 0.596,-0.365C0.591,-0.336 0.584,-0.309 0.576,-0.282C0.567,-0.255 0.555,-0.228 0.542,-0.202C0.541,-0.199 0.539,-0.196 0.538,-0.193C0.537,-0.19 0.535,-0.185 0.533,-0.179C0.552,-0.183 0.569,-0.187 0.584,-0.19C0.599,-0.193 0.614,-0.197 0.628,-0.2C0.642,-0.203 0.656,-0.206 0.67,-0.209C0.684,-0.212 0.7,-0.215 0.717,-0.218C0.72,-0.211 0.725,-0.203 0.731,-0.193C0.694,-0.185 0.659,-0.175 0.624,-0.163C0.589,-0.15 0.553,-0.14 0.517,-0.132C0.505,-0.128 0.495,-0.121 0.486,-0.111C0.45,-0.063 0.411,-0.019 0.369,0.022C0.326,0.063 0.281,0.101 0.233,0.137C0.216,0.148 0.198,0.159 0.18,0.169C0.161,0.178 0.142,0.185 0.124,0.189C0.105,0.193 0.086,0.193 0.068,0.19C0.049,0.186 0.032,0.176 0.016,0.161C0.01,0.154 0.007,0.147 0.008,0.138C0.008,0.129 0.01,0.121 0.013,0.113C0.016,0.104 0.021,0.096 0.027,0.089C0.032,0.081 0.038,0.075 0.043,0.071C0.057,0.058 0.071,0.046 0.085,0.033C0.099,0.02 0.113,0.008 0.128,-0.003C0.142,-0.014 0.15,-0.027 0.153,-0.044C0.158,-0.08 0.166,-0.115 0.176,-0.149C0.186,-0.182 0.198,-0.216 0.211,-0.25C0.226,-0.29 0.242,-0.327 0.257,-0.363C0.272,-0.398 0.29,-0.434 0.309,-0.473C0.308,-0.474 0.307,-0.476 0.306,-0.477ZM0.378,-0.504C0.368,-0.467 0.358,-0.432 0.347,-0.397C0.335,-0.362 0.325,-0.328 0.314,-0.294C0.303,-0.259 0.292,-0.225 0.281,-0.19C0.27,-0.155 0.261,-0.119 0.252,-0.082C0.273,-0.091 0.295,-0.101 0.316,-0.111C0.337,-0.12 0.359,-0.128 0.381,-0.135C0.4,-0.142 0.417,-0.151 0.43,-0.161C0.443,-0.171 0.455,-0.184 0.466,-0.201C0.485,-0.231 0.503,-0.262 0.519,-0.293C0.534,-0.324 0.546,-0.356 0.554,-0.391C0.557,-0.406 0.56,-0.422 0.562,-0.438C0.564,-0.454 0.564,-0.47 0.561,-0.486C0.556,-0.505 0.546,-0.517 0.531,-0.522C0.516,-0.527 0.499,-0.529 0.48,-0.528C0.46,-0.526 0.442,-0.522 0.423,-0.517C0.404,-0.511 0.389,-0.507 0.378,-0.504ZM0.049,0.161C0.073,0.154 0.096,0.145 0.117,0.136C0.137,0.127 0.158,0.114 0.177,0.098C0.211,0.071 0.244,0.043 0.277,0.014C0.309,-0.015 0.337,-0.045 0.361,-0.078C0.318,-0.063 0.279,-0.046 0.242,-0.025C0.239,-0.024 0.237,-0.022 0.236,-0.019C0.234,-0.016 0.232,-0.012 0.231,-0.009C0.226,0.002 0.221,0.014 0.217,0.025C0.212,0.036 0.207,0.047 0.202,0.058C0.201,0.061 0.199,0.064 0.197,0.067C0.195,0.07 0.192,0.071 0.188,0.07C0.181,0.07 0.175,0.07 0.169,0.07C0.162,0.069 0.156,0.069 0.149,0.068L0.145,0.039C0.138,0.043 0.131,0.048 0.123,0.055C0.114,0.062 0.106,0.069 0.099,0.077C0.091,0.084 0.084,0.092 0.077,0.099C0.07,0.106 0.065,0.113 0.062,0.119C0.058,0.124 0.055,0.13 0.052,0.137C0.049,0.144 0.048,0.152 0.049,0.161Z" style="fill:white;fill-rule:nonzero;"/>
        </g>
        <g transform="matrix(36,0,0,36,81.592,80)">
            <path d="M0.245,-0.254C0.248,-0.253 0.25,-0.251 0.252,-0.25C0.253,-0.249 0.255,-0.247 0.257,-0.246C0.257,-0.243 0.257,-0.242 0.256,-0.241C0.222,-0.197 0.19,-0.156 0.161,-0.119C0.132,-0.082 0.1,-0.046 0.066,-0.012C0.06,-0.006 0.054,-0.002 0.048,-0.001C0.041,0 0.035,0 0.029,-0.001C0.022,-0.002 0.016,-0.005 0.01,-0.008C0.004,-0.011 -0.002,-0.014 -0.008,-0.017C-0.026,-0.024 -0.037,-0.037 -0.041,-0.058C-0.046,-0.103 -0.041,-0.145 -0.026,-0.183C-0.011,-0.221 0.01,-0.256 0.035,-0.287C0.048,-0.297 0.059,-0.299 0.068,-0.293C0.076,-0.287 0.084,-0.279 0.091,-0.269C0.076,-0.247 0.065,-0.228 0.058,-0.212C0.05,-0.195 0.044,-0.179 0.041,-0.163C0.037,-0.147 0.035,-0.129 0.034,-0.11C0.033,-0.091 0.032,-0.067 0.031,-0.039C0.052,-0.054 0.071,-0.07 0.091,-0.089C0.11,-0.107 0.128,-0.126 0.146,-0.145C0.164,-0.164 0.181,-0.183 0.198,-0.202C0.214,-0.221 0.23,-0.238 0.245,-0.254ZM0.166,-0.41C0.158,-0.4 0.151,-0.392 0.144,-0.385L0.105,-0.345C0.098,-0.338 0.091,-0.329 0.083,-0.32C0.076,-0.323 0.072,-0.326 0.071,-0.331C0.07,-0.335 0.067,-0.339 0.062,-0.344C0.057,-0.35 0.056,-0.358 0.058,-0.367C0.06,-0.376 0.064,-0.385 0.069,-0.394C0.074,-0.403 0.079,-0.411 0.086,-0.419C0.093,-0.426 0.099,-0.432 0.104,-0.435C0.111,-0.438 0.118,-0.44 0.124,-0.44C0.13,-0.439 0.136,-0.438 0.141,-0.435C0.146,-0.432 0.15,-0.428 0.154,-0.424C0.158,-0.419 0.162,-0.415 0.166,-0.41Z" style="fill:white;fill-rule:nonzero;"/>
        </g>
        <g transform="matrix(36,0,0,36,96.64,80)">
            <path d="M0.555,-0.662C0.567,-0.655 0.574,-0.65 0.577,-0.647C0.579,-0.643 0.579,-0.635 0.576,-0.622C0.57,-0.587 0.562,-0.552 0.552,-0.517C0.539,-0.471 0.525,-0.425 0.511,-0.379C0.497,-0.333 0.485,-0.29 0.475,-0.25C0.497,-0.259 0.52,-0.268 0.545,-0.277C0.569,-0.286 0.592,-0.294 0.613,-0.302C0.628,-0.307 0.638,-0.309 0.643,-0.307C0.648,-0.305 0.654,-0.296 0.661,-0.28C0.658,-0.277 0.656,-0.275 0.654,-0.273C0.651,-0.271 0.648,-0.269 0.645,-0.266C0.635,-0.259 0.623,-0.251 0.608,-0.244C0.592,-0.236 0.577,-0.228 0.561,-0.221C0.544,-0.214 0.528,-0.207 0.513,-0.201C0.497,-0.194 0.484,-0.189 0.473,-0.184C0.461,-0.179 0.454,-0.171 0.451,-0.158C0.444,-0.121 0.437,-0.086 0.43,-0.055C0.423,-0.023 0.416,0.012 0.407,0.049C0.404,0.066 0.4,0.081 0.395,0.096C0.39,0.111 0.38,0.119 0.364,0.12C0.35,0.12 0.341,0.118 0.337,0.115C0.333,0.112 0.331,0.103 0.33,0.088C0.329,0.055 0.33,0.022 0.335,-0.01C0.339,-0.042 0.345,-0.074 0.352,-0.106C0.354,-0.113 0.356,-0.121 0.358,-0.128C0.359,-0.135 0.361,-0.143 0.363,-0.152C0.36,-0.151 0.357,-0.15 0.354,-0.15C0.351,-0.149 0.349,-0.149 0.346,-0.148C0.328,-0.143 0.31,-0.139 0.292,-0.134C0.274,-0.129 0.256,-0.125 0.238,-0.121C0.232,-0.12 0.227,-0.118 0.224,-0.115C0.221,-0.112 0.217,-0.109 0.214,-0.104C0.201,-0.085 0.189,-0.065 0.177,-0.046C0.164,-0.026 0.151,-0.006 0.138,0.013C0.133,0.021 0.127,0.029 0.12,0.036C0.113,0.043 0.106,0.05 0.099,0.057C0.088,0.068 0.077,0.073 0.064,0.074C0.051,0.074 0.038,0.072 0.025,0.067C0.016,0.064 0.009,0.056 0.006,0.044C0.003,0.032 0.004,0.022 0.009,0.013C0.01,0.012 0.012,0.011 0.016,0.011C0.019,0.01 0.022,0.009 0.025,0.008C0.027,0.018 0.029,0.027 0.03,0.037C0.031,0.046 0.036,0.054 0.046,0.061C0.049,0.058 0.053,0.056 0.057,0.054C0.06,0.051 0.064,0.048 0.067,0.045C0.076,0.034 0.086,0.023 0.095,0.012C0.103,0.001 0.112,-0.01 0.12,-0.022C0.129,-0.035 0.138,-0.049 0.147,-0.064C0.155,-0.079 0.164,-0.093 0.173,-0.107L0.175,-0.116C0.168,-0.117 0.162,-0.118 0.156,-0.119C0.149,-0.12 0.143,-0.121 0.137,-0.122C0.113,-0.126 0.091,-0.137 0.072,-0.155C0.062,-0.164 0.058,-0.175 0.06,-0.189C0.07,-0.188 0.076,-0.183 0.078,-0.172C0.08,-0.163 0.086,-0.157 0.096,-0.155C0.113,-0.151 0.129,-0.149 0.146,-0.15C0.162,-0.151 0.178,-0.153 0.195,-0.156C0.198,-0.157 0.201,-0.159 0.204,-0.162C0.206,-0.165 0.208,-0.168 0.21,-0.171C0.229,-0.203 0.249,-0.235 0.268,-0.266C0.286,-0.297 0.306,-0.328 0.325,-0.36C0.35,-0.404 0.377,-0.447 0.406,-0.489C0.435,-0.531 0.465,-0.572 0.497,-0.612C0.5,-0.616 0.503,-0.62 0.507,-0.624C0.51,-0.627 0.513,-0.631 0.516,-0.634C0.527,-0.648 0.54,-0.657 0.555,-0.662ZM0.26,-0.178L0.263,-0.175L0.275,-0.178C0.29,-0.184 0.306,-0.19 0.322,-0.197C0.338,-0.204 0.354,-0.21 0.37,-0.216C0.375,-0.217 0.379,-0.22 0.382,-0.223C0.384,-0.226 0.386,-0.231 0.387,-0.236C0.4,-0.277 0.413,-0.319 0.426,-0.36C0.439,-0.401 0.452,-0.442 0.465,-0.483C0.466,-0.486 0.467,-0.488 0.467,-0.49C0.428,-0.44 0.393,-0.389 0.36,-0.336C0.327,-0.283 0.294,-0.231 0.26,-0.178Z" style="fill:white;fill-rule:nonzero;"/>
        </g>
        <g transform="matrix(36,0,0,36,117.556,80)">
            <path d="M0.262,-0.016C0.267,-0.015 0.271,-0.015 0.274,-0.016C0.277,-0.017 0.281,-0.017 0.286,-0.016C0.285,-0.013 0.284,-0.011 0.284,-0.009C0.283,-0.007 0.282,-0.005 0.281,-0.004C0.273,0.011 0.265,0.025 0.258,0.039C0.25,0.053 0.241,0.065 0.232,0.075C0.223,0.085 0.212,0.092 0.201,0.097C0.189,0.101 0.175,0.101 0.158,0.097C0.137,0.081 0.125,0.059 0.121,0.032C0.117,0.005 0.118,-0.024 0.124,-0.055C0.13,-0.085 0.14,-0.115 0.154,-0.146C0.167,-0.176 0.181,-0.202 0.195,-0.224C0.197,-0.227 0.198,-0.231 0.197,-0.236L0.182,-0.221C0.163,-0.202 0.147,-0.182 0.133,-0.161C0.118,-0.14 0.103,-0.118 0.088,-0.097C0.079,-0.083 0.069,-0.069 0.059,-0.056C0.049,-0.042 0.039,-0.028 0.029,-0.014L0.023,-0.006C0.015,0.003 0.005,0.009 -0.006,0.012C-0.017,0.014 -0.028,0.012 -0.039,0.006C-0.042,0.004 -0.045,0.001 -0.046,-0.003C-0.047,-0.008 -0.049,-0.014 -0.05,-0.019C-0.051,-0.024 -0.052,-0.03 -0.051,-0.035C-0.048,-0.081 -0.04,-0.126 -0.027,-0.169C-0.014,-0.212 0.006,-0.252 0.032,-0.291C0.037,-0.298 0.042,-0.305 0.047,-0.312C0.052,-0.318 0.058,-0.324 0.063,-0.331C0.07,-0.339 0.076,-0.343 0.079,-0.344C0.082,-0.345 0.087,-0.343 0.094,-0.34C0.099,-0.337 0.101,-0.333 0.103,-0.328C0.103,-0.323 0.103,-0.318 0.103,-0.313C0.101,-0.307 0.1,-0.301 0.098,-0.295C0.095,-0.289 0.093,-0.283 0.092,-0.278C0.083,-0.253 0.075,-0.228 0.067,-0.203C0.058,-0.178 0.05,-0.152 0.042,-0.127C0.041,-0.124 0.04,-0.12 0.039,-0.117C0.038,-0.114 0.037,-0.11 0.037,-0.107C0.05,-0.128 0.066,-0.15 0.083,-0.173C0.1,-0.195 0.119,-0.216 0.139,-0.237C0.159,-0.257 0.18,-0.276 0.202,-0.294C0.224,-0.312 0.246,-0.328 0.268,-0.341C0.273,-0.337 0.277,-0.332 0.279,-0.327C0.281,-0.321 0.285,-0.316 0.291,-0.311C0.296,-0.307 0.298,-0.303 0.298,-0.298C0.297,-0.293 0.296,-0.287 0.295,-0.282C0.288,-0.262 0.282,-0.246 0.277,-0.235C0.272,-0.224 0.267,-0.214 0.263,-0.205C0.258,-0.196 0.253,-0.186 0.248,-0.176C0.242,-0.165 0.235,-0.152 0.226,-0.135C0.22,-0.124 0.214,-0.109 0.208,-0.09C0.202,-0.071 0.197,-0.053 0.193,-0.034C0.189,-0.015 0.187,0.003 0.187,0.019C0.186,0.034 0.188,0.045 0.193,0.05C0.198,0.055 0.206,0.053 0.217,0.044C0.228,0.035 0.243,0.015 0.262,-0.016Z" style="fill:white;fill-rule:nonzero;"/>
        </g>
        <g transform="matrix(36,0,0,36,136.276,80)">
            <path d="M0.306,-0.477C0.265,-0.456 0.229,-0.431 0.198,-0.403C0.167,-0.374 0.144,-0.341 0.13,-0.303C0.123,-0.305 0.119,-0.308 0.117,-0.313C0.115,-0.318 0.115,-0.323 0.116,-0.328C0.121,-0.359 0.134,-0.387 0.154,-0.41C0.191,-0.451 0.233,-0.484 0.278,-0.51C0.323,-0.535 0.373,-0.552 0.428,-0.559C0.456,-0.562 0.481,-0.563 0.503,-0.56C0.524,-0.557 0.543,-0.545 0.559,-0.526C0.58,-0.502 0.592,-0.476 0.597,-0.45C0.601,-0.423 0.601,-0.394 0.596,-0.365C0.591,-0.336 0.584,-0.309 0.576,-0.282C0.567,-0.255 0.555,-0.228 0.542,-0.202C0.541,-0.199 0.539,-0.196 0.538,-0.193C0.537,-0.19 0.535,-0.185 0.533,-0.179C0.552,-0.183 0.569,-0.187 0.584,-0.19C0.599,-0.193 0.614,-0.197 0.628,-0.2C0.642,-0.203 0.656,-0.206 0.67,-0.209C0.684,-0.212 0.7,-0.215 0.717,-0.218C0.72,-0.211 0.725,-0.203 0.731,-0.193C0.694,-0.185 0.659,-0.175 0.624,-0.163C0.589,-0.15 0.553,-0.14 0.517,-0.132C0.505,-0.128 0.495,-0.121 0.486,-0.111C0.45,-0.063 0.411,-0.019 0.369,0.022C0.326,0.063 0.281,0.101 0.233,0.137C0.216,0.148 0.198,0.159 0.18,0.169C0.161,0.178 0.142,0.185 0.124,0.189C0.105,0.193 0.086,0.193 0.068,0.19C0.049,0.186 0.032,0.176 0.016,0.161C0.01,0.154 0.007,0.147 0.008,0.138C0.008,0.129 0.01,0.121 0.013,0.113C0.016,0.104 0.021,0.096 0.027,0.089C0.032,0.081 0.038,0.075 0.043,0.071C0.057,0.058 0.071,0.046 0.085,0.033C0.099,0.02 0.113,0.008 0.128,-0.003C0.142,-0.014 0.15,-0.027 0.153,-0.044C0.158,-0.08 0.166,-0.115 0.176,-0.149C0.186,-0.182 0.198,-0.216 0.211,-0.25C0.226,-0.29 0.242,-0.327 0.257,-0.363C0.272,-0.398 0.29,-0.434 0.309,-0.473C0.308,-0.474 0.307,-0.476 0.306,-0.477ZM0.378,-0.504C0.368,-0.467 0.358,-0.432 0.347,-0.397C0.335,-0.362 0.325,-0.328 0.314,-0.294C0.303,-0.259 0.292,-0.225 0.281,-0.19C0.27,-0.155 0.261,-0.119 0.252,-0.082C0.273,-0.091 0.295,-0.101 0.316,-0.111C0.337,-0.12 0.359,-0.128 0.381,-0.135C0.4,-0.142 0.417,-0.151 0.43,-0.161C0.443,-0.171 0.455,-0.184 0.466,-0.201C0.485,-0.231 0.503,-0.262 0.519,-0.293C0.534,-0.324 0.546,-0.356 0.554,-0.391C0.557,-0.406 0.56,-0.422 0.562,-0.438C0.564,-0.454 0.564,-0.47 0.561,-0.486C0.556,-0.505 0.546,-0.517 0.531,-0.522C0.516,-0.527 0.499,-0.529 0.48,-0.528C0.46,-0.526 0.442,-0.522 0.423,-0.517C0.404,-0.511 0.389,-0.507 0.378,-0.504ZM0.049,0.161C0.073,0.154 0.096,0.145 0.117,0.136C0.137,0.127 0.158,0.114 0.177,0.098C0.211,0.071 0.244,0.043 0.277,0.014C0.309,-0.015 0.337,-0.045 0.361,-0.078C0.318,-0.063 0.279,-0.046 0.242,-0.025C0.239,-0.024 0.237,-0.022 0.236,-0.019C0.234,-0.016 0.232,-0.012 0.231,-0.009C0.226,0.002 0.221,0.014 0.217,0.025C0.212,0.036 0.207,0.047 0.202,0.058C0.201,0.061 0.199,0.064 0.197,0.067C0.195,0.07 0.192,0.071 0.188,0.07C0.181,0.07 0.175,0.07 0.169,0.07C0.162,0.069 0.156,0.069 0.149,0.068L0.145,0.039C0.138,0.043 0.131,0.048 0.123,0.055C0.114,0.062 0.106,0.069 0.099,0.077C0.091,0.084 0.084,0.092 0.077,0.099C0.07,0.106 0.065,0.113 0.062,0.119C0.058,0.124 0.055,0.13 0.052,0.137C0.049,0.144 0.048,0.152 0.049,0.161Z" style="fill:white;fill-rule:nonzero;"/>
        </g>
        <g transform="matrix(36,0,0,36,160.828,80)">
            <path d="M0.245,-0.254C0.248,-0.253 0.25,-0.251 0.252,-0.25C0.253,-0.249 0.255,-0.247 0.257,-0.246C0.257,-0.243 0.257,-0.242 0.256,-0.241C0.222,-0.197 0.19,-0.156 0.161,-0.119C0.132,-0.082 0.1,-0.046 0.066,-0.012C0.06,-0.006 0.054,-0.002 0.048,-0.001C0.041,0 0.035,0 0.029,-0.001C0.022,-0.002 0.016,-0.005 0.01,-0.008C0.004,-0.011 -0.002,-0.014 -0.008,-0.017C-0.026,-0.024 -0.037,-0.037 -0.041,-0.058C-0.046,-0.103 -0.041,-0.145 -0.026,-0.183C-0.011,-0.221 0.01,-0.256 0.035,-0.287C0.048,-0.297 0.059,-0.299 0.068,-0.293C0.076,-0.287 0.084,-0.279 0.091,-0.269C0.076,-0.247 0.065,-0.228 0.058,-0.212C0.05,-0.195 0.044,-0.179 0.041,-0.163C0.037,-0.147 0.035,-0.129 0.034,-0.11C0.033,-0.091 0.032,-0.067 0.031,-0.039C0.052,-0.054 0.071,-0.07 0.091,-0.089C0.11,-0.107 0.128,-0.126 0.146,-0.145C0.164,-0.164 0.181,-0.183 0.198,-0.202C0.214,-0.221 0.23,-0.238 0.245,-0.254ZM0.166,-0.41C0.158,-0.4 0.151,-0.392 0.144,-0.385L0.105,-0.345C0.098,-0.338 0.091,-0.329 0.083,-0.32C0.076,-0.323 0.072,-0.326 0.071,-0.331C0.07,-0.335 0.067,-0.339 0.062,-0.344C0.057,-0.35 0.056,-0.358 0.058,-0.367C0.06,-0.376 0.064,-0.385 0.069,-0.394C0.074,-0.403 0.079,-0.411 0.086,-0.419C0.093,-0.426 0.099,-0.432 0.104,-0.435C0.111,-0.438 0.118,-0.44 0.124,-0.44C0.13,-0.439 0.136,-0.438 0.141,-0.435C0.146,-0.432 0.15,-0.428 0.154,-0.424C0.158,-0.419 0.162,-0.415 0.166,-0.41Z" style="fill:white;fill-rule:nonzero;"/>
        </g>
        <g transform="matrix(36,0,0,36,175.876,80)">
            <path d="M0.217,-0.457C0.197,-0.457 0.178,-0.455 0.16,-0.45C0.142,-0.445 0.125,-0.44 0.108,-0.434C0.091,-0.427 0.075,-0.42 0.059,-0.413C0.043,-0.406 0.027,-0.399 0.011,-0.393C0.008,-0.398 0.005,-0.404 0.001,-0.411C0.012,-0.424 0.027,-0.438 0.047,-0.453C0.067,-0.467 0.088,-0.48 0.111,-0.493C0.134,-0.506 0.156,-0.517 0.178,-0.527C0.199,-0.537 0.217,-0.545 0.232,-0.55C0.241,-0.553 0.249,-0.557 0.255,-0.562C0.261,-0.567 0.266,-0.574 0.271,-0.583C0.278,-0.596 0.284,-0.607 0.289,-0.614C0.294,-0.621 0.301,-0.631 0.309,-0.642C0.318,-0.636 0.324,-0.631 0.328,-0.628C0.331,-0.624 0.333,-0.62 0.334,-0.616C0.334,-0.611 0.333,-0.606 0.331,-0.599C0.328,-0.592 0.326,-0.583 0.323,-0.571C0.338,-0.574 0.355,-0.576 0.373,-0.579C0.39,-0.582 0.408,-0.584 0.426,-0.586C0.444,-0.588 0.462,-0.589 0.48,-0.59C0.497,-0.591 0.514,-0.59 0.529,-0.589C0.537,-0.587 0.544,-0.583 0.549,-0.578C0.554,-0.572 0.559,-0.565 0.563,-0.558C0.567,-0.55 0.57,-0.542 0.573,-0.534C0.576,-0.526 0.578,-0.519 0.58,-0.513C0.582,-0.51 0.584,-0.507 0.586,-0.507C0.587,-0.506 0.588,-0.505 0.589,-0.506C0.59,-0.506 0.59,-0.506 0.589,-0.506C0.588,-0.506 0.585,-0.505 0.582,-0.504C0.578,-0.502 0.574,-0.501 0.57,-0.501C0.565,-0.5 0.561,-0.5 0.556,-0.499C0.517,-0.496 0.475,-0.491 0.431,-0.485C0.386,-0.479 0.345,-0.474 0.308,-0.471C0.302,-0.47 0.298,-0.468 0.295,-0.465C0.292,-0.462 0.289,-0.457 0.287,-0.451C0.278,-0.411 0.266,-0.369 0.252,-0.324C0.237,-0.279 0.225,-0.236 0.216,-0.197C0.211,-0.176 0.207,-0.158 0.204,-0.141C0.201,-0.124 0.197,-0.107 0.194,-0.091C0.191,-0.075 0.188,-0.059 0.185,-0.042C0.182,-0.025 0.178,-0.005 0.174,0.016C0.17,0.033 0.165,0.051 0.16,0.068C0.154,0.085 0.147,0.102 0.14,0.119C0.137,0.128 0.13,0.132 0.121,0.131C0.112,0.13 0.106,0.13 0.102,0.13C0.097,0.129 0.094,0.128 0.092,0.126C0.09,0.124 0.089,0.121 0.088,0.117C0.087,0.112 0.086,0.105 0.085,0.096C0.082,0.079 0.082,0.063 0.083,0.047C0.084,0.03 0.085,0.014 0.086,-0.003C0.089,-0.042 0.095,-0.079 0.104,-0.116C0.113,-0.152 0.123,-0.188 0.135,-0.224C0.146,-0.259 0.159,-0.295 0.172,-0.33C0.185,-0.365 0.199,-0.4 0.212,-0.436C0.213,-0.439 0.213,-0.441 0.214,-0.444C0.215,-0.447 0.216,-0.451 0.217,-0.457Z" style="fill:white;fill-rule:nonzero;"/>
        </g>
        <g transform="matrix(36,0,0,36,186.388,80)">
            <path d="M0.039,-0.152C0.037,-0.134 0.036,-0.117 0.037,-0.101C0.037,-0.085 0.04,-0.069 0.046,-0.054C0.049,-0.045 0.052,-0.039 0.055,-0.038C0.058,-0.036 0.064,-0.036 0.073,-0.037C0.09,-0.038 0.104,-0.044 0.115,-0.053C0.13,-0.067 0.146,-0.081 0.162,-0.095C0.177,-0.108 0.193,-0.122 0.208,-0.136C0.225,-0.151 0.242,-0.167 0.259,-0.184C0.275,-0.2 0.291,-0.216 0.308,-0.232C0.312,-0.236 0.316,-0.238 0.321,-0.239C0.325,-0.239 0.33,-0.238 0.336,-0.236C0.334,-0.233 0.332,-0.23 0.331,-0.227C0.329,-0.224 0.327,-0.222 0.325,-0.219C0.302,-0.192 0.279,-0.166 0.257,-0.14C0.234,-0.113 0.211,-0.087 0.188,-0.061C0.181,-0.053 0.173,-0.046 0.165,-0.039C0.157,-0.032 0.149,-0.025 0.14,-0.018C0.128,-0.009 0.116,-0.003 0.103,-0.001C0.09,0.001 0.076,-0.002 0.062,-0.011C0.053,-0.017 0.043,-0.023 0.034,-0.029C0.024,-0.035 0.014,-0.041 0.005,-0.046C-0.008,-0.055 -0.018,-0.065 -0.024,-0.077C-0.03,-0.088 -0.034,-0.101 -0.035,-0.116C-0.045,-0.209 -0.013,-0.282 0.06,-0.335L0.082,-0.35C0.091,-0.357 0.1,-0.362 0.11,-0.364C0.12,-0.366 0.131,-0.366 0.142,-0.365C0.145,-0.365 0.149,-0.364 0.153,-0.363C0.156,-0.361 0.159,-0.359 0.161,-0.356C0.169,-0.346 0.177,-0.336 0.185,-0.326C0.193,-0.316 0.2,-0.305 0.207,-0.294C0.214,-0.282 0.217,-0.27 0.217,-0.257C0.216,-0.244 0.213,-0.232 0.208,-0.219C0.201,-0.2 0.19,-0.185 0.177,-0.172C0.163,-0.159 0.147,-0.148 0.13,-0.139C0.117,-0.132 0.103,-0.129 0.09,-0.13C0.077,-0.131 0.064,-0.136 0.051,-0.145C0.05,-0.146 0.048,-0.147 0.047,-0.148C0.045,-0.149 0.042,-0.15 0.039,-0.152ZM0.044,-0.169C0.077,-0.166 0.105,-0.175 0.127,-0.196C0.139,-0.207 0.149,-0.22 0.157,-0.233C0.164,-0.246 0.171,-0.261 0.176,-0.276C0.177,-0.28 0.178,-0.284 0.179,-0.289C0.18,-0.294 0.18,-0.299 0.181,-0.304C0.182,-0.308 0.181,-0.311 0.178,-0.313C0.175,-0.315 0.172,-0.316 0.168,-0.315C0.165,-0.315 0.161,-0.314 0.156,-0.313C0.143,-0.31 0.131,-0.305 0.122,-0.297C0.113,-0.289 0.104,-0.28 0.095,-0.271C0.082,-0.258 0.071,-0.242 0.064,-0.225C0.056,-0.208 0.049,-0.189 0.044,-0.169Z" style="fill:white;fill-rule:nonzero;"/>
        </g>
        <g transform="matrix(36,0,0,36,196.432,80)">
            <path d="M0.203,-0.043C0.208,-0.048 0.214,-0.054 0.219,-0.06C0.224,-0.065 0.229,-0.071 0.234,-0.077C0.25,-0.098 0.266,-0.12 0.282,-0.141C0.297,-0.162 0.313,-0.184 0.329,-0.205C0.333,-0.21 0.337,-0.216 0.342,-0.222C0.347,-0.227 0.352,-0.234 0.358,-0.241L0.368,-0.224C0.361,-0.213 0.353,-0.201 0.346,-0.189C0.339,-0.177 0.331,-0.165 0.323,-0.154C0.31,-0.135 0.296,-0.115 0.283,-0.096C0.269,-0.076 0.255,-0.056 0.241,-0.037C0.239,-0.034 0.237,-0.031 0.235,-0.029C0.232,-0.026 0.23,-0.023 0.227,-0.02C0.22,-0.015 0.215,-0.012 0.211,-0.012C0.206,-0.011 0.2,-0.013 0.191,-0.016C0.172,-0.023 0.158,-0.034 0.15,-0.048C0.141,-0.062 0.136,-0.079 0.135,-0.098C0.134,-0.101 0.134,-0.105 0.134,-0.109C0.133,-0.112 0.132,-0.117 0.131,-0.123C0.127,-0.118 0.123,-0.113 0.12,-0.109C0.117,-0.104 0.114,-0.1 0.111,-0.096C0.102,-0.085 0.094,-0.074 0.087,-0.063C0.079,-0.051 0.07,-0.04 0.061,-0.029C0.056,-0.024 0.051,-0.019 0.046,-0.014C0.041,-0.009 0.035,-0.004 0.03,0.001C0.023,0.006 0.016,0.007 0.009,0.002C0.004,-0.001 -0.002,-0.005 -0.009,-0.008C-0.015,-0.011 -0.021,-0.014 -0.026,-0.018C-0.041,-0.029 -0.049,-0.042 -0.049,-0.059C-0.049,-0.069 -0.049,-0.079 -0.048,-0.089C-0.047,-0.099 -0.046,-0.109 -0.043,-0.118C-0.032,-0.159 -0.016,-0.196 0.005,-0.231C0.026,-0.266 0.052,-0.297 0.084,-0.325C0.094,-0.334 0.105,-0.342 0.117,-0.347C0.128,-0.352 0.141,-0.355 0.154,-0.357C0.167,-0.359 0.179,-0.359 0.191,-0.357C0.202,-0.354 0.213,-0.348 0.223,-0.339C0.232,-0.344 0.24,-0.349 0.248,-0.354C0.256,-0.359 0.266,-0.361 0.277,-0.358C0.284,-0.357 0.29,-0.353 0.293,-0.348C0.296,-0.342 0.3,-0.336 0.303,-0.33C0.274,-0.298 0.252,-0.264 0.235,-0.227C0.218,-0.19 0.206,-0.151 0.199,-0.11C0.196,-0.099 0.195,-0.088 0.196,-0.078C0.196,-0.067 0.197,-0.056 0.198,-0.045C0.199,-0.045 0.2,-0.044 0.203,-0.043ZM0.016,-0.043L0.022,-0.04C0.029,-0.047 0.036,-0.054 0.043,-0.061C0.05,-0.067 0.056,-0.074 0.063,-0.081C0.074,-0.093 0.086,-0.105 0.097,-0.118C0.108,-0.131 0.119,-0.143 0.13,-0.156C0.134,-0.161 0.137,-0.167 0.139,-0.175C0.148,-0.214 0.163,-0.253 0.186,-0.29C0.187,-0.292 0.189,-0.294 0.19,-0.297C0.191,-0.299 0.192,-0.302 0.195,-0.306C0.189,-0.304 0.184,-0.302 0.181,-0.301C0.177,-0.299 0.173,-0.297 0.17,-0.296C0.121,-0.269 0.084,-0.23 0.058,-0.179C0.049,-0.161 0.041,-0.143 0.035,-0.124C0.029,-0.105 0.024,-0.086 0.02,-0.067C0.019,-0.063 0.019,-0.059 0.019,-0.055C0.018,-0.051 0.017,-0.047 0.016,-0.043Z" style="fill:white;fill-rule:nonzero;"/>
        </g>
        <g transform="matrix(36,0,0,36,208.636,80)">
            <path d="M0.412,-0.319C0.417,-0.315 0.423,-0.311 0.428,-0.308C0.433,-0.305 0.438,-0.301 0.443,-0.297C0.445,-0.296 0.447,-0.294 0.449,-0.291C0.45,-0.288 0.451,-0.284 0.45,-0.281C0.45,-0.273 0.448,-0.265 0.445,-0.256C0.438,-0.238 0.432,-0.22 0.426,-0.202C0.42,-0.184 0.414,-0.166 0.407,-0.148C0.399,-0.125 0.391,-0.099 0.383,-0.071C0.374,-0.043 0.367,-0.015 0.362,0.014C0.357,0.042 0.354,0.07 0.353,0.098C0.352,0.125 0.354,0.151 0.36,0.174C0.366,0.171 0.374,0.164 0.385,0.154C0.396,0.143 0.407,0.132 0.418,0.119C0.429,0.106 0.44,0.092 0.449,0.079C0.458,0.065 0.465,0.053 0.469,0.042C0.474,0.043 0.478,0.045 0.483,0.047C0.487,0.048 0.492,0.05 0.497,0.052C0.493,0.062 0.487,0.074 0.479,0.087C0.47,0.099 0.461,0.113 0.452,0.127C0.442,0.14 0.432,0.153 0.423,0.166C0.413,0.179 0.405,0.19 0.398,0.2C0.389,0.214 0.377,0.219 0.362,0.214C0.357,0.212 0.351,0.211 0.345,0.21C0.339,0.209 0.333,0.207 0.328,0.206C0.313,0.203 0.303,0.194 0.299,0.18C0.284,0.129 0.28,0.081 0.285,0.034C0.29,-0.013 0.299,-0.058 0.313,-0.101C0.319,-0.118 0.325,-0.136 0.331,-0.154C0.337,-0.172 0.343,-0.191 0.35,-0.21C0.347,-0.208 0.345,-0.206 0.344,-0.205C0.342,-0.204 0.34,-0.202 0.339,-0.2L0.243,-0.068C0.234,-0.055 0.225,-0.042 0.216,-0.029C0.207,-0.016 0.199,-0.002 0.19,0.011C0.183,0.02 0.176,0.024 0.167,0.021L0.141,0.015C0.132,0.013 0.126,0.01 0.123,0.005C0.12,0 0.119,-0.007 0.12,-0.016C0.121,-0.025 0.123,-0.035 0.124,-0.044C0.125,-0.053 0.127,-0.061 0.129,-0.07C0.134,-0.093 0.14,-0.116 0.146,-0.139C0.152,-0.161 0.158,-0.184 0.163,-0.207L0.163,-0.214L0.15,-0.201C0.131,-0.178 0.113,-0.153 0.096,-0.128C0.079,-0.103 0.062,-0.077 0.046,-0.052C0.041,-0.045 0.037,-0.038 0.032,-0.032C0.027,-0.025 0.023,-0.019 0.018,-0.012C0.012,-0.003 0.004,0.001 -0.007,-0.002L-0.045,-0.009C-0.054,-0.011 -0.058,-0.016 -0.058,-0.025C-0.058,-0.032 -0.058,-0.038 -0.058,-0.045C-0.057,-0.052 -0.056,-0.058 -0.055,-0.065C-0.046,-0.107 -0.034,-0.147 -0.019,-0.186C-0.003,-0.224 0.016,-0.261 0.039,-0.297C0.042,-0.302 0.046,-0.307 0.05,-0.312C0.054,-0.317 0.058,-0.322 0.062,-0.327C0.066,-0.327 0.068,-0.327 0.069,-0.326C0.082,-0.319 0.089,-0.314 0.092,-0.31C0.094,-0.306 0.093,-0.297 0.089,-0.284C0.082,-0.261 0.076,-0.238 0.069,-0.216C0.062,-0.194 0.055,-0.172 0.048,-0.149C0.047,-0.146 0.046,-0.142 0.045,-0.139C0.044,-0.135 0.044,-0.131 0.045,-0.127L0.055,-0.142C0.076,-0.172 0.097,-0.201 0.121,-0.228C0.143,-0.255 0.169,-0.281 0.196,-0.305C0.205,-0.313 0.211,-0.317 0.214,-0.317C0.217,-0.317 0.224,-0.314 0.233,-0.308C0.24,-0.304 0.245,-0.3 0.249,-0.297C0.252,-0.294 0.255,-0.29 0.256,-0.287C0.257,-0.284 0.258,-0.28 0.258,-0.275C0.257,-0.27 0.256,-0.264 0.254,-0.256C0.249,-0.233 0.243,-0.211 0.237,-0.189C0.231,-0.167 0.225,-0.145 0.22,-0.122C0.219,-0.119 0.218,-0.115 0.218,-0.112C0.217,-0.109 0.218,-0.105 0.219,-0.1L0.238,-0.129C0.263,-0.17 0.292,-0.208 0.325,-0.243C0.338,-0.257 0.352,-0.27 0.366,-0.283C0.38,-0.296 0.395,-0.308 0.412,-0.319Z" style="fill:white;fill-rule:nonzero;"/>
        </g>
    </g>
    <g transform="matrix(1,0,0,1,10,-4)">
        <path d="M255,43.8C258.789,37 266.368,37 270.158,40.4C273.948,43.8 273.948,50.6 270.158,57.4C267.505,62.5 260.684,67.6 255,71C249.316,67.6 242.495,62.5 239.842,57.4C236.053,50.6 236.053,43.8 239.842,40.4C243.632,37 251.211,37 255,43.8Z" style="fill:rgb(130,149,92);"/>
    </g>
</svg>
