<?xml version="1.0" encoding="UTF-8" standalone="no"?>
<!DOCTYPE svg PUBLIC "-//W3C//DTD SVG 1.1//EN" "http://www.w3.org/Graphics/SVG/1.1/DTD/svg11.dtd">
<svg width="100%" height="100%" viewBox="0 0 261 65" version="1.1" xmlns="http://www.w3.org/2000/svg" xmlns:xlink="http://www.w3.org/1999/xlink" xml:space="preserve" xmlns:serif="http://www.serif.com/" style="fill-rule:evenodd;clip-rule:evenodd;stroke-linejoin:round;stroke-miterlimit:2;">
    <g transform="matrix(1,0,0,1,-13,-45)">
        <g transform="matrix(72,0,0,72,19,94)">
            <path d="M0.253,-0.208C0.235,-0.194 0.218,-0.181 0.202,-0.169C0.186,-0.157 0.171,-0.145 0.156,-0.133C0.141,-0.12 0.128,-0.107 0.115,-0.093C0.101,-0.078 0.089,-0.062 0.077,-0.043C0.058,-0.014 0.046,0.017 0.041,0.051C0.04,0.062 0.04,0.072 0.042,0.082C0.044,0.092 0.048,0.102 0.054,0.111C0.075,0.105 0.095,0.096 0.113,0.084C0.13,0.071 0.148,0.056 0.167,0.039C0.19,0.011 0.211,-0.016 0.232,-0.043C0.252,-0.069 0.272,-0.1 0.291,-0.135C0.3,-0.15 0.307,-0.166 0.312,-0.181C0.317,-0.196 0.32,-0.21 0.32,-0.224C0.32,-0.237 0.316,-0.25 0.309,-0.262C0.302,-0.274 0.289,-0.285 0.272,-0.294C0.253,-0.305 0.234,-0.315 0.217,-0.326C0.199,-0.337 0.182,-0.348 0.167,-0.36C0.16,-0.365 0.156,-0.373 0.155,-0.382C0.154,-0.391 0.156,-0.399 0.159,-0.408C0.163,-0.424 0.17,-0.44 0.18,-0.456C0.189,-0.471 0.2,-0.486 0.213,-0.5C0.225,-0.513 0.238,-0.526 0.253,-0.538C0.268,-0.549 0.282,-0.559 0.296,-0.568C0.319,-0.582 0.343,-0.585 0.367,-0.578C0.373,-0.576 0.38,-0.573 0.387,-0.569C0.394,-0.564 0.401,-0.559 0.407,-0.554C0.413,-0.549 0.418,-0.543 0.421,-0.537C0.424,-0.53 0.425,-0.524 0.422,-0.517C0.417,-0.494 0.409,-0.473 0.398,-0.454C0.387,-0.435 0.371,-0.419 0.35,-0.406C0.347,-0.407 0.345,-0.409 0.343,-0.411C0.34,-0.412 0.337,-0.414 0.334,-0.417C0.351,-0.438 0.364,-0.458 0.374,-0.475C0.384,-0.492 0.391,-0.512 0.394,-0.535C0.379,-0.533 0.363,-0.526 0.345,-0.513C0.327,-0.5 0.31,-0.484 0.294,-0.467C0.278,-0.449 0.264,-0.43 0.253,-0.411C0.242,-0.391 0.235,-0.373 0.233,-0.358C0.244,-0.348 0.258,-0.338 0.274,-0.328C0.289,-0.317 0.305,-0.307 0.32,-0.298C0.345,-0.283 0.362,-0.264 0.371,-0.242C0.379,-0.219 0.382,-0.194 0.381,-0.166C0.38,-0.141 0.375,-0.118 0.368,-0.096C0.361,-0.073 0.351,-0.051 0.34,-0.03C0.328,-0.011 0.315,0.008 0.302,0.027C0.288,0.046 0.273,0.063 0.256,0.079C0.239,0.094 0.222,0.108 0.203,0.12C0.184,0.132 0.163,0.141 0.14,0.146C0.129,0.149 0.117,0.15 0.106,0.151C0.094,0.151 0.082,0.149 0.071,0.145C0.064,0.143 0.058,0.141 0.052,0.138C0.046,0.135 0.04,0.133 0.033,0.132C0.02,0.128 0.01,0.122 0.005,0.114C-0.001,0.105 -0.005,0.094 -0.006,0.081C-0.008,0.047 -0.002,0.013 0.013,-0.02C0.024,-0.042 0.036,-0.062 0.051,-0.081C0.066,-0.099 0.082,-0.116 0.099,-0.132C0.116,-0.147 0.133,-0.162 0.152,-0.176C0.171,-0.19 0.19,-0.204 0.209,-0.218C0.216,-0.222 0.223,-0.223 0.232,-0.22C0.24,-0.217 0.247,-0.213 0.253,-0.208Z" style="fill:white;fill-rule:nonzero;"/>
        </g>
        <g transform="matrix(72,0,0,72,51.112,94)">
            <path d="M0.172,-0.311C0.149,-0.311 0.132,-0.304 0.119,-0.29C0.089,-0.259 0.065,-0.225 0.048,-0.19C0.031,-0.154 0.023,-0.114 0.026,-0.069C0.027,-0.058 0.028,-0.05 0.03,-0.045C0.032,-0.039 0.036,-0.032 0.043,-0.024L0.075,-0.038C0.102,-0.053 0.127,-0.07 0.15,-0.09C0.173,-0.11 0.195,-0.131 0.216,-0.152C0.227,-0.163 0.239,-0.175 0.251,-0.186C0.262,-0.197 0.274,-0.208 0.285,-0.219C0.295,-0.229 0.306,-0.231 0.319,-0.224L0.312,-0.212C0.289,-0.187 0.265,-0.161 0.242,-0.136C0.218,-0.111 0.194,-0.085 0.17,-0.06C0.161,-0.05 0.151,-0.041 0.14,-0.032C0.129,-0.023 0.117,-0.014 0.106,-0.005C0.095,0.003 0.084,0.008 0.073,0.009C0.062,0.01 0.05,0.006 0.037,-0.003C0.025,-0.011 0.014,-0.019 0.003,-0.027C-0.009,-0.035 -0.018,-0.045 -0.027,-0.056C-0.042,-0.077 -0.048,-0.099 -0.046,-0.123C-0.04,-0.197 -0.01,-0.26 0.043,-0.311C0.066,-0.334 0.094,-0.346 0.127,-0.348C0.142,-0.349 0.154,-0.345 0.163,-0.338C0.171,-0.331 0.179,-0.321 0.185,-0.31C0.194,-0.294 0.199,-0.278 0.201,-0.262C0.203,-0.245 0.2,-0.229 0.192,-0.212C0.188,-0.203 0.184,-0.194 0.18,-0.185C0.175,-0.176 0.17,-0.168 0.164,-0.16C0.159,-0.152 0.154,-0.148 0.15,-0.148C0.145,-0.148 0.139,-0.152 0.132,-0.159L0.125,-0.166C0.119,-0.173 0.116,-0.178 0.116,-0.181C0.116,-0.184 0.119,-0.189 0.124,-0.196C0.135,-0.211 0.144,-0.226 0.153,-0.24C0.16,-0.255 0.166,-0.27 0.17,-0.284C0.171,-0.287 0.172,-0.291 0.172,-0.296L0.172,-0.311Z" style="fill:white;fill-rule:nonzero;"/>
        </g>
        <g transform="matrix(72,0,0,72,70.768,94)">
            <path d="M0.049,-0.135C0.076,-0.17 0.105,-0.202 0.134,-0.231C0.163,-0.26 0.196,-0.282 0.235,-0.297C0.244,-0.3 0.253,-0.3 0.26,-0.297C0.267,-0.293 0.273,-0.288 0.277,-0.281C0.281,-0.274 0.283,-0.266 0.284,-0.257C0.285,-0.248 0.283,-0.24 0.28,-0.233C0.253,-0.172 0.228,-0.114 0.207,-0.057C0.185,0.001 0.17,0.06 0.161,0.122L0.161,0.134C0.184,0.103 0.207,0.074 0.23,0.045C0.252,0.016 0.274,-0.014 0.297,-0.044C0.301,-0.042 0.305,-0.04 0.308,-0.039C0.311,-0.037 0.315,-0.035 0.318,-0.033C0.301,0 0.282,0.031 0.26,0.061C0.238,0.091 0.217,0.121 0.197,0.151C0.194,0.155 0.191,0.16 0.187,0.165C0.181,0.173 0.176,0.179 0.173,0.184C0.169,0.188 0.165,0.191 0.161,0.192C0.157,0.193 0.152,0.192 0.147,0.191C0.142,0.19 0.134,0.187 0.125,0.184C0.118,0.181 0.112,0.178 0.107,0.174C0.102,0.169 0.1,0.163 0.099,0.156C0.098,0.145 0.096,0.133 0.095,0.122C0.094,0.11 0.094,0.098 0.095,0.087C0.097,0.061 0.101,0.035 0.106,0.011C0.111,-0.014 0.119,-0.039 0.128,-0.062C0.14,-0.092 0.153,-0.121 0.167,-0.15C0.18,-0.178 0.195,-0.206 0.211,-0.233C0.216,-0.241 0.221,-0.25 0.226,-0.26C0.217,-0.26 0.206,-0.256 0.195,-0.248C0.183,-0.239 0.171,-0.23 0.161,-0.219C0.15,-0.208 0.139,-0.196 0.13,-0.185C0.121,-0.174 0.114,-0.165 0.109,-0.158C0.09,-0.132 0.072,-0.107 0.056,-0.083C0.039,-0.058 0.024,-0.033 0.01,-0.008C-0.003,0.012 -0.019,0.015 -0.04,0.002C-0.047,-0.003 -0.05,-0.01 -0.049,-0.019C-0.046,-0.034 -0.044,-0.05 -0.043,-0.066C-0.041,-0.081 -0.038,-0.097 -0.035,-0.112C-0.026,-0.15 -0.016,-0.187 -0.003,-0.224C0.01,-0.261 0.025,-0.297 0.042,-0.332C0.025,-0.334 0.01,-0.341 -0.001,-0.352C-0.012,-0.363 -0.021,-0.375 -0.026,-0.39C-0.031,-0.405 -0.034,-0.42 -0.033,-0.437C-0.032,-0.453 -0.028,-0.467 -0.021,-0.48C-0.016,-0.479 -0.013,-0.476 -0.013,-0.472C-0.012,-0.468 -0.012,-0.464 -0.012,-0.461C-0.013,-0.448 -0.013,-0.435 -0.012,-0.423C-0.01,-0.41 -0.006,-0.399 -0.001,-0.39C0.004,-0.381 0.012,-0.373 0.021,-0.368C0.03,-0.362 0.042,-0.359 0.056,-0.36C0.058,-0.363 0.06,-0.367 0.062,-0.37C0.064,-0.373 0.066,-0.376 0.067,-0.379C0.08,-0.401 0.095,-0.422 0.111,-0.442C0.126,-0.462 0.145,-0.48 0.166,-0.495C0.177,-0.502 0.189,-0.508 0.203,-0.513C0.217,-0.517 0.229,-0.514 0.24,-0.503C0.245,-0.498 0.249,-0.493 0.254,-0.488C0.258,-0.483 0.262,-0.477 0.265,-0.471C0.266,-0.468 0.267,-0.465 0.268,-0.461C0.268,-0.457 0.268,-0.453 0.267,-0.45C0.264,-0.433 0.257,-0.418 0.246,-0.406C0.235,-0.394 0.223,-0.383 0.209,-0.374C0.198,-0.367 0.186,-0.36 0.173,-0.354C0.16,-0.347 0.148,-0.341 0.135,-0.336C0.13,-0.333 0.126,-0.331 0.123,-0.329C0.12,-0.326 0.117,-0.322 0.115,-0.317C0.104,-0.288 0.094,-0.259 0.083,-0.23C0.072,-0.201 0.062,-0.172 0.051,-0.143C0.05,-0.142 0.05,-0.14 0.05,-0.139C0.05,-0.138 0.05,-0.136 0.049,-0.135ZM0.15,-0.384C0.16,-0.388 0.17,-0.394 0.181,-0.401C0.192,-0.408 0.202,-0.417 0.211,-0.426C0.22,-0.435 0.227,-0.444 0.233,-0.453C0.238,-0.462 0.241,-0.469 0.242,-0.476C0.228,-0.477 0.213,-0.468 0.196,-0.452C0.179,-0.435 0.163,-0.412 0.15,-0.384Z" style="fill:white;fill-rule:nonzero;"/>
        </g>
        <g transform="matrix(72,0,0,72,94.168,94)">
            <path d="M0.057,-0.203C0.064,-0.204 0.071,-0.207 0.076,-0.21C0.081,-0.213 0.085,-0.217 0.089,-0.221C0.1,-0.232 0.11,-0.244 0.12,-0.255C0.129,-0.266 0.139,-0.277 0.149,-0.288C0.161,-0.301 0.174,-0.301 0.187,-0.289C0.191,-0.286 0.193,-0.282 0.194,-0.278C0.195,-0.274 0.194,-0.27 0.193,-0.265C0.188,-0.249 0.183,-0.233 0.178,-0.217C0.173,-0.201 0.168,-0.185 0.163,-0.17C0.156,-0.149 0.15,-0.127 0.147,-0.106C0.144,-0.085 0.141,-0.063 0.139,-0.042C0.139,-0.041 0.139,-0.039 0.14,-0.038C0.14,-0.037 0.14,-0.035 0.141,-0.032C0.15,-0.037 0.158,-0.042 0.165,-0.048C0.171,-0.053 0.177,-0.059 0.183,-0.066C0.202,-0.086 0.222,-0.106 0.242,-0.126C0.262,-0.146 0.282,-0.166 0.301,-0.185L0.31,-0.194C0.313,-0.193 0.315,-0.191 0.318,-0.19C0.32,-0.189 0.322,-0.187 0.324,-0.186C0.323,-0.185 0.323,-0.184 0.324,-0.183C0.324,-0.182 0.324,-0.182 0.323,-0.181C0.306,-0.158 0.289,-0.134 0.272,-0.111C0.255,-0.087 0.237,-0.065 0.216,-0.044C0.209,-0.037 0.201,-0.03 0.194,-0.023C0.186,-0.016 0.178,-0.01 0.17,-0.004C0.157,0.007 0.144,0.008 0.13,0L0.115,-0.007C0.1,-0.01 0.091,-0.017 0.086,-0.027C0.081,-0.037 0.077,-0.049 0.076,-0.062C0.075,-0.079 0.076,-0.096 0.079,-0.113C0.082,-0.129 0.086,-0.145 0.09,-0.161C0.091,-0.164 0.092,-0.168 0.093,-0.171C0.094,-0.174 0.095,-0.177 0.096,-0.181C0.093,-0.18 0.09,-0.179 0.086,-0.178C0.073,-0.172 0.061,-0.173 0.049,-0.18C0.044,-0.183 0.038,-0.185 0.032,-0.187C0.014,-0.196 0.003,-0.21 -0.001,-0.231C-0.005,-0.25 -0.006,-0.269 -0.004,-0.288C-0.002,-0.306 0.003,-0.324 0.01,-0.341C0.019,-0.362 0.03,-0.381 0.042,-0.4C0.053,-0.418 0.068,-0.434 0.087,-0.447C0.09,-0.449 0.092,-0.451 0.095,-0.453C0.097,-0.455 0.099,-0.457 0.102,-0.458C0.115,-0.465 0.125,-0.467 0.134,-0.465C0.142,-0.462 0.15,-0.455 0.157,-0.443C0.16,-0.439 0.16,-0.435 0.159,-0.432C0.158,-0.429 0.156,-0.425 0.155,-0.422C0.144,-0.403 0.131,-0.382 0.118,-0.36C0.105,-0.339 0.094,-0.317 0.085,-0.294C0.076,-0.271 0.068,-0.247 0.061,-0.223C0.06,-0.219 0.058,-0.212 0.057,-0.203Z" style="fill:white;fill-rule:nonzero;"/>
        </g>
        <g transform="matrix(72,0,0,72,115.12,94)">
            <path d="M0.039,-0.152C0.037,-0.134 0.036,-0.117 0.037,-0.101C0.037,-0.085 0.04,-0.069 0.046,-0.054C0.049,-0.045 0.052,-0.039 0.055,-0.038C0.058,-0.036 0.064,-0.036 0.073,-0.037C0.09,-0.038 0.104,-0.044 0.115,-0.053C0.13,-0.067 0.146,-0.081 0.162,-0.095C0.177,-0.108 0.193,-0.122 0.208,-0.136C0.225,-0.151 0.242,-0.167 0.259,-0.184C0.275,-0.2 0.291,-0.216 0.308,-0.232C0.312,-0.236 0.316,-0.238 0.321,-0.239C0.325,-0.239 0.33,-0.238 0.336,-0.236C0.334,-0.233 0.332,-0.23 0.331,-0.227C0.329,-0.224 0.327,-0.222 0.325,-0.219C0.302,-0.192 0.279,-0.166 0.257,-0.14C0.234,-0.113 0.211,-0.087 0.188,-0.061C0.181,-0.053 0.173,-0.046 0.165,-0.039C0.157,-0.032 0.149,-0.025 0.14,-0.018C0.128,-0.009 0.116,-0.003 0.103,-0.001C0.09,0.001 0.076,-0.002 0.062,-0.011C0.053,-0.017 0.043,-0.023 0.034,-0.029C0.024,-0.035 0.014,-0.041 0.005,-0.046C-0.008,-0.055 -0.018,-0.065 -0.024,-0.077C-0.03,-0.088 -0.034,-0.101 -0.035,-0.116C-0.045,-0.209 -0.013,-0.282 0.06,-0.335L0.082,-0.35C0.091,-0.357 0.1,-0.362 0.11,-0.364C0.12,-0.366 0.131,-0.366 0.142,-0.365C0.145,-0.365 0.149,-0.364 0.153,-0.363C0.156,-0.361 0.159,-0.359 0.161,-0.356C0.169,-0.346 0.177,-0.336 0.185,-0.326C0.193,-0.316 0.2,-0.305 0.207,-0.294C0.214,-0.282 0.217,-0.27 0.217,-0.257C0.216,-0.244 0.213,-0.232 0.208,-0.219C0.201,-0.2 0.19,-0.185 0.177,-0.172C0.163,-0.159 0.147,-0.148 0.13,-0.139C0.117,-0.132 0.103,-0.129 0.09,-0.13C0.077,-0.131 0.064,-0.136 0.051,-0.145C0.05,-0.146 0.048,-0.147 0.047,-0.148C0.045,-0.149 0.042,-0.15 0.039,-0.152ZM0.044,-0.169C0.077,-0.166 0.105,-0.175 0.127,-0.196C0.139,-0.207 0.149,-0.22 0.157,-0.233C0.164,-0.246 0.171,-0.261 0.176,-0.276C0.177,-0.28 0.178,-0.284 0.179,-0.289C0.18,-0.294 0.18,-0.299 0.181,-0.304C0.182,-0.308 0.181,-0.311 0.178,-0.313C0.175,-0.315 0.172,-0.316 0.168,-0.315C0.165,-0.315 0.161,-0.314 0.156,-0.313C0.143,-0.31 0.131,-0.305 0.122,-0.297C0.113,-0.289 0.104,-0.28 0.095,-0.271C0.082,-0.258 0.071,-0.242 0.064,-0.225C0.056,-0.208 0.049,-0.189 0.044,-0.169Z" style="fill:white;fill-rule:nonzero;"/>
        </g>
        <g transform="matrix(72,0,0,72,135.208,94)">
            <path d="M0.245,-0.254C0.248,-0.253 0.25,-0.251 0.252,-0.25C0.253,-0.249 0.255,-0.247 0.257,-0.246C0.257,-0.243 0.257,-0.242 0.256,-0.241C0.222,-0.197 0.19,-0.156 0.161,-0.119C0.132,-0.082 0.1,-0.046 0.066,-0.012C0.06,-0.006 0.054,-0.002 0.048,-0.001C0.041,0 0.035,0 0.029,-0.001C0.022,-0.002 0.016,-0.005 0.01,-0.008C0.004,-0.011 -0.002,-0.014 -0.008,-0.017C-0.026,-0.024 -0.037,-0.037 -0.041,-0.058C-0.046,-0.103 -0.041,-0.145 -0.026,-0.183C-0.011,-0.221 0.01,-0.256 0.035,-0.287C0.048,-0.297 0.059,-0.299 0.068,-0.293C0.076,-0.287 0.084,-0.279 0.091,-0.269C0.076,-0.247 0.065,-0.228 0.058,-0.212C0.05,-0.195 0.044,-0.179 0.041,-0.163C0.037,-0.147 0.035,-0.129 0.034,-0.11C0.033,-0.091 0.032,-0.067 0.031,-0.039C0.052,-0.054 0.071,-0.07 0.091,-0.089C0.11,-0.107 0.128,-0.126 0.146,-0.145C0.164,-0.164 0.181,-0.183 0.198,-0.202C0.214,-0.221 0.23,-0.238 0.245,-0.254ZM0.166,-0.41C0.158,-0.4 0.151,-0.392 0.144,-0.385L0.105,-0.345C0.098,-0.338 0.091,-0.329 0.083,-0.32C0.076,-0.323 0.072,-0.326 0.071,-0.331C0.07,-0.335 0.067,-0.339 0.062,-0.344C0.057,-0.35 0.056,-0.358 0.058,-0.367C0.06,-0.376 0.064,-0.385 0.069,-0.394C0.074,-0.403 0.079,-0.411 0.086,-0.419C0.093,-0.426 0.099,-0.432 0.104,-0.435C0.111,-0.438 0.118,-0.44 0.124,-0.44C0.13,-0.439 0.136,-0.438 0.141,-0.435C0.146,-0.432 0.15,-0.428 0.154,-0.424C0.158,-0.419 0.162,-0.415 0.166,-0.41Z" style="fill:white;fill-rule:nonzero;"/>
        </g>
        <g transform="matrix(72,0,0,72,150.832,94)">
            <path d="M0.131,-0.159C0.134,-0.158 0.137,-0.157 0.14,-0.156C0.143,-0.155 0.145,-0.153 0.148,-0.152C0.142,-0.135 0.136,-0.119 0.129,-0.104C0.122,-0.088 0.119,-0.07 0.12,-0.051C0.127,-0.058 0.131,-0.062 0.132,-0.065C0.147,-0.094 0.163,-0.122 0.178,-0.151C0.193,-0.179 0.207,-0.208 0.222,-0.237C0.225,-0.244 0.228,-0.252 0.231,-0.261C0.234,-0.269 0.236,-0.277 0.238,-0.285C0.239,-0.289 0.24,-0.293 0.24,-0.298C0.24,-0.303 0.241,-0.308 0.242,-0.315C0.236,-0.313 0.231,-0.312 0.227,-0.311C0.222,-0.31 0.218,-0.308 0.215,-0.306C0.193,-0.295 0.174,-0.28 0.157,-0.264C0.14,-0.247 0.125,-0.228 0.111,-0.209C0.068,-0.148 0.038,-0.08 0.019,-0.005C0.016,0.006 0.014,0.013 0.013,0.019C0.012,0.024 0.01,0.027 0.007,0.029C0.004,0.03 0,0.031 -0.005,0.032C-0.01,0.032 -0.018,0.032 -0.029,0.033C-0.036,0.034 -0.042,0.033 -0.045,0.031C-0.048,0.028 -0.051,0.023 -0.052,0.016C-0.053,0.005 -0.054,-0.006 -0.055,-0.017C-0.056,-0.028 -0.055,-0.039 -0.054,-0.05C-0.049,-0.105 -0.038,-0.159 -0.023,-0.211C-0.007,-0.263 0.013,-0.314 0.038,-0.364C0.05,-0.389 0.063,-0.414 0.077,-0.439C0.09,-0.464 0.104,-0.488 0.117,-0.513C0.118,-0.516 0.12,-0.52 0.123,-0.523C0.125,-0.526 0.127,-0.529 0.13,-0.532C0.136,-0.539 0.142,-0.542 0.15,-0.541C0.157,-0.539 0.164,-0.534 0.171,-0.527C0.172,-0.526 0.173,-0.525 0.174,-0.524C0.174,-0.523 0.175,-0.521 0.176,-0.52C0.166,-0.491 0.155,-0.462 0.143,-0.434C0.131,-0.406 0.119,-0.378 0.109,-0.349C0.097,-0.32 0.087,-0.292 0.078,-0.263C0.069,-0.234 0.061,-0.204 0.056,-0.173C0.057,-0.176 0.059,-0.178 0.06,-0.18C0.061,-0.182 0.062,-0.184 0.063,-0.186C0.076,-0.209 0.091,-0.231 0.106,-0.252C0.121,-0.272 0.14,-0.29 0.161,-0.306C0.168,-0.312 0.176,-0.317 0.185,-0.322C0.193,-0.326 0.201,-0.33 0.21,-0.334C0.222,-0.339 0.234,-0.337 0.246,-0.327C0.259,-0.316 0.268,-0.304 0.272,-0.291C0.275,-0.278 0.275,-0.263 0.271,-0.246C0.256,-0.188 0.236,-0.132 0.211,-0.079C0.206,-0.068 0.199,-0.056 0.191,-0.046C0.183,-0.035 0.175,-0.023 0.168,-0.012C0.158,0.003 0.144,0.007 0.127,0.002C0.122,0.001 0.116,-0.001 0.111,-0.003C0.105,-0.004 0.099,-0.006 0.093,-0.007C0.088,-0.036 0.088,-0.062 0.095,-0.087C0.102,-0.112 0.114,-0.136 0.131,-0.159Z" style="fill:white;fill-rule:nonzero;"/>
        </g>
        <g transform="matrix(72,0,0,72,173.728,94)">
            <path d="M-0.006,0.177C-0.014,0.177 -0.019,0.176 -0.022,0.174C-0.024,0.171 -0.029,0.17 -0.036,0.17C-0.037,0.167 -0.038,0.164 -0.039,0.161C-0.04,0.158 -0.04,0.156 -0.041,0.153C-0.046,0.125 -0.048,0.098 -0.048,0.071C-0.047,0.044 -0.046,0.017 -0.043,-0.01C-0.036,-0.079 -0.026,-0.146 -0.011,-0.212C0.004,-0.278 0.023,-0.343 0.047,-0.408C0.048,-0.41 0.048,-0.412 0.049,-0.414C0.049,-0.416 0.05,-0.419 0.051,-0.422C0.048,-0.422 0.045,-0.422 0.042,-0.423C0.039,-0.423 0.037,-0.423 0.034,-0.423C0.022,-0.424 0.01,-0.426 -0.002,-0.427C-0.014,-0.428 -0.026,-0.429 -0.039,-0.431C-0.054,-0.434 -0.066,-0.44 -0.077,-0.449C-0.087,-0.458 -0.096,-0.468 -0.103,-0.481L-0.106,-0.49C-0.107,-0.491 -0.106,-0.494 -0.105,-0.497C-0.104,-0.496 -0.102,-0.495 -0.102,-0.495C-0.1,-0.495 -0.1,-0.494 -0.099,-0.493C-0.094,-0.485 -0.089,-0.48 -0.082,-0.477C-0.075,-0.474 -0.067,-0.472 -0.059,-0.471C-0.038,-0.469 -0.017,-0.469 0.004,-0.471C0.024,-0.472 0.044,-0.476 0.064,-0.483C0.069,-0.484 0.073,-0.487 0.076,-0.49C0.079,-0.493 0.081,-0.496 0.084,-0.501C0.093,-0.519 0.103,-0.537 0.113,-0.555C0.122,-0.573 0.132,-0.591 0.143,-0.608C0.147,-0.615 0.152,-0.622 0.158,-0.629C0.163,-0.636 0.17,-0.641 0.177,-0.646L0.183,-0.644C0.193,-0.637 0.199,-0.632 0.202,-0.628C0.205,-0.624 0.206,-0.62 0.205,-0.616C0.204,-0.612 0.201,-0.607 0.198,-0.602C0.194,-0.597 0.19,-0.59 0.187,-0.581C0.183,-0.571 0.179,-0.561 0.175,-0.551C0.17,-0.54 0.165,-0.529 0.16,-0.517C0.165,-0.518 0.168,-0.519 0.171,-0.52C0.174,-0.52 0.177,-0.521 0.18,-0.522C0.201,-0.531 0.225,-0.54 0.251,-0.551C0.276,-0.562 0.3,-0.571 0.321,-0.579C0.328,-0.582 0.334,-0.584 0.341,-0.586C0.347,-0.587 0.353,-0.589 0.36,-0.59C0.369,-0.592 0.376,-0.588 0.379,-0.579C0.38,-0.576 0.382,-0.571 0.385,-0.566C0.39,-0.556 0.392,-0.549 0.391,-0.545C0.39,-0.541 0.384,-0.536 0.375,-0.531C0.369,-0.528 0.363,-0.524 0.357,-0.521C0.351,-0.518 0.345,-0.515 0.338,-0.513C0.309,-0.502 0.28,-0.491 0.251,-0.481C0.222,-0.47 0.193,-0.46 0.163,-0.45C0.151,-0.445 0.143,-0.437 0.14,-0.426C0.119,-0.363 0.099,-0.298 0.08,-0.232C0.06,-0.165 0.044,-0.099 0.032,-0.034C0.026,-0.002 0.02,0.029 0.015,0.061C0.01,0.091 0.004,0.123 -0.001,0.155C-0.002,0.158 -0.002,0.162 -0.003,0.165C-0.004,0.168 -0.005,0.172 -0.006,0.177Z" style="fill:white;fill-rule:nonzero;"/>
        </g>
        <g transform="matrix(72,0,0,72,197.344,94)">
            <path d="M0.097,-0.361C0.104,-0.355 0.11,-0.35 0.114,-0.347C0.118,-0.343 0.121,-0.339 0.123,-0.336C0.124,-0.333 0.125,-0.329 0.124,-0.324C0.123,-0.319 0.122,-0.313 0.119,-0.306C0.113,-0.289 0.107,-0.272 0.1,-0.255C0.093,-0.238 0.087,-0.22 0.08,-0.203C0.071,-0.182 0.063,-0.16 0.056,-0.138C0.049,-0.116 0.043,-0.093 0.038,-0.07C0.037,-0.067 0.037,-0.065 0.037,-0.062C0.037,-0.059 0.037,-0.056 0.036,-0.051C0.039,-0.054 0.042,-0.057 0.045,-0.059C0.048,-0.061 0.05,-0.063 0.052,-0.066C0.075,-0.093 0.099,-0.121 0.123,-0.148C0.146,-0.174 0.17,-0.202 0.193,-0.23C0.196,-0.233 0.199,-0.237 0.201,-0.242C0.203,-0.247 0.205,-0.252 0.207,-0.257C0.213,-0.273 0.22,-0.288 0.229,-0.303C0.237,-0.317 0.247,-0.33 0.259,-0.341C0.262,-0.345 0.266,-0.349 0.271,-0.352C0.275,-0.355 0.279,-0.358 0.283,-0.361C0.295,-0.352 0.302,-0.346 0.304,-0.341C0.305,-0.336 0.303,-0.328 0.298,-0.316C0.287,-0.29 0.277,-0.263 0.269,-0.236C0.26,-0.209 0.253,-0.181 0.247,-0.153C0.245,-0.141 0.243,-0.129 0.242,-0.118C0.24,-0.106 0.238,-0.094 0.237,-0.082C0.236,-0.08 0.236,-0.078 0.237,-0.075C0.237,-0.072 0.237,-0.068 0.237,-0.063C0.262,-0.094 0.287,-0.125 0.312,-0.154C0.336,-0.183 0.362,-0.21 0.391,-0.236C0.394,-0.233 0.397,-0.23 0.4,-0.228C0.402,-0.225 0.404,-0.222 0.407,-0.219C0.406,-0.216 0.404,-0.214 0.403,-0.212C0.401,-0.209 0.399,-0.207 0.397,-0.205C0.376,-0.175 0.354,-0.146 0.332,-0.117C0.31,-0.088 0.288,-0.059 0.267,-0.029C0.265,-0.027 0.262,-0.023 0.258,-0.018C0.248,-0.003 0.234,0.002 0.216,-0.004C0.197,-0.01 0.184,-0.017 0.178,-0.025C0.172,-0.032 0.169,-0.046 0.168,-0.066C0.167,-0.08 0.167,-0.094 0.168,-0.109C0.169,-0.116 0.171,-0.124 0.172,-0.131C0.173,-0.138 0.174,-0.145 0.175,-0.154C0.172,-0.152 0.17,-0.15 0.169,-0.149C0.167,-0.148 0.165,-0.146 0.164,-0.144C0.156,-0.133 0.148,-0.123 0.141,-0.112C0.133,-0.101 0.125,-0.091 0.116,-0.08C0.107,-0.068 0.097,-0.056 0.086,-0.045C0.075,-0.034 0.065,-0.022 0.054,-0.011C0.047,-0.004 0.039,0.001 0.032,0.003C0.024,0.004 0.015,0.002 0.006,-0.003C0.002,-0.006 -0.002,-0.008 -0.007,-0.01C-0.011,-0.011 -0.015,-0.013 -0.02,-0.015C-0.031,-0.02 -0.039,-0.027 -0.043,-0.034C-0.047,-0.041 -0.048,-0.05 -0.047,-0.062C-0.046,-0.07 -0.046,-0.078 -0.045,-0.086C-0.044,-0.093 -0.042,-0.101 -0.039,-0.108C-0.031,-0.13 -0.023,-0.152 -0.016,-0.175C-0.008,-0.197 0.001,-0.219 0.011,-0.24C0.02,-0.258 0.03,-0.275 0.042,-0.292C0.053,-0.308 0.065,-0.324 0.076,-0.341C0.079,-0.344 0.082,-0.348 0.086,-0.351C0.089,-0.354 0.093,-0.358 0.097,-0.361Z" style="fill:white;fill-rule:nonzero;"/>
        </g>
        <g transform="matrix(72,0,0,72,223.192,94)">
            <path d="M0.262,-0.016C0.267,-0.015 0.271,-0.015 0.274,-0.016C0.277,-0.017 0.281,-0.017 0.286,-0.016C0.285,-0.013 0.284,-0.011 0.284,-0.009C0.283,-0.007 0.282,-0.005 0.281,-0.004C0.273,0.011 0.265,0.025 0.258,0.039C0.25,0.053 0.241,0.065 0.232,0.075C0.223,0.085 0.212,0.092 0.201,0.097C0.189,0.101 0.175,0.101 0.158,0.097C0.137,0.081 0.125,0.059 0.121,0.032C0.117,0.005 0.118,-0.024 0.124,-0.055C0.13,-0.085 0.14,-0.115 0.154,-0.146C0.167,-0.176 0.181,-0.202 0.195,-0.224C0.197,-0.227 0.198,-0.231 0.197,-0.236L0.182,-0.221C0.163,-0.202 0.147,-0.182 0.133,-0.161C0.118,-0.14 0.103,-0.118 0.088,-0.097C0.079,-0.083 0.069,-0.069 0.059,-0.056C0.049,-0.042 0.039,-0.028 0.029,-0.014L0.023,-0.006C0.015,0.003 0.005,0.009 -0.006,0.012C-0.017,0.014 -0.028,0.012 -0.039,0.006C-0.042,0.004 -0.045,0.001 -0.046,-0.003C-0.047,-0.008 -0.049,-0.014 -0.05,-0.019C-0.051,-0.024 -0.052,-0.03 -0.051,-0.035C-0.048,-0.081 -0.04,-0.126 -0.027,-0.169C-0.014,-0.212 0.006,-0.252 0.032,-0.291C0.037,-0.298 0.042,-0.305 0.047,-0.312C0.052,-0.318 0.058,-0.324 0.063,-0.331C0.07,-0.339 0.076,-0.343 0.079,-0.344C0.082,-0.345 0.087,-0.343 0.094,-0.34C0.099,-0.337 0.101,-0.333 0.103,-0.328C0.103,-0.323 0.103,-0.318 0.103,-0.313C0.101,-0.307 0.1,-0.301 0.098,-0.295C0.095,-0.289 0.093,-0.283 0.092,-0.278C0.083,-0.253 0.075,-0.228 0.067,-0.203C0.058,-0.178 0.05,-0.152 0.042,-0.127C0.041,-0.124 0.04,-0.12 0.039,-0.117C0.038,-0.114 0.037,-0.11 0.037,-0.107C0.05,-0.128 0.066,-0.15 0.083,-0.173C0.1,-0.195 0.119,-0.216 0.139,-0.237C0.159,-0.257 0.18,-0.276 0.202,-0.294C0.224,-0.312 0.246,-0.328 0.268,-0.341C0.273,-0.337 0.277,-0.332 0.279,-0.327C0.281,-0.321 0.285,-0.316 0.291,-0.311C0.296,-0.307 0.298,-0.303 0.298,-0.298C0.297,-0.293 0.296,-0.287 0.295,-0.282C0.288,-0.262 0.282,-0.246 0.277,-0.235C0.272,-0.224 0.267,-0.214 0.263,-0.205C0.258,-0.196 0.253,-0.186 0.248,-0.176C0.242,-0.165 0.235,-0.152 0.226,-0.135C0.22,-0.124 0.214,-0.109 0.208,-0.09C0.202,-0.071 0.197,-0.053 0.193,-0.034C0.189,-0.015 0.187,0.003 0.187,0.019C0.186,0.034 0.188,0.045 0.193,0.05C0.198,0.055 0.206,0.053 0.217,0.044C0.228,0.035 0.243,0.015 0.262,-0.016Z" style="fill:white;fill-rule:nonzero;"/>
        </g>
        <g transform="matrix(72,0,0,72,246.16,94)">
            <path d="M0.112,-0.256C0.099,-0.271 0.087,-0.287 0.078,-0.303C0.068,-0.319 0.059,-0.336 0.05,-0.353C0.043,-0.37 0.041,-0.384 0.044,-0.397C0.047,-0.409 0.057,-0.42 0.073,-0.429C0.088,-0.438 0.104,-0.443 0.121,-0.443C0.136,-0.443 0.146,-0.438 0.151,-0.428C0.16,-0.414 0.167,-0.4 0.171,-0.386C0.174,-0.378 0.173,-0.371 0.168,-0.366C0.163,-0.361 0.155,-0.358 0.146,-0.358C0.149,-0.363 0.15,-0.367 0.151,-0.37C0.154,-0.383 0.15,-0.387 0.139,-0.384C0.12,-0.379 0.103,-0.369 0.09,-0.352C0.089,-0.35 0.087,-0.348 0.086,-0.346C0.084,-0.343 0.082,-0.34 0.08,-0.337C0.089,-0.326 0.098,-0.314 0.108,-0.303C0.116,-0.291 0.126,-0.279 0.136,-0.266C0.161,-0.276 0.188,-0.283 0.216,-0.288C0.243,-0.293 0.271,-0.297 0.299,-0.301L0.307,-0.284C0.306,-0.283 0.304,-0.282 0.303,-0.281C0.302,-0.28 0.3,-0.28 0.299,-0.279C0.285,-0.275 0.271,-0.271 0.257,-0.267C0.242,-0.263 0.228,-0.259 0.213,-0.254C0.204,-0.251 0.194,-0.247 0.185,-0.243C0.175,-0.239 0.165,-0.235 0.155,-0.231C0.158,-0.224 0.16,-0.218 0.162,-0.213C0.165,-0.204 0.169,-0.196 0.173,-0.188C0.177,-0.18 0.18,-0.171 0.182,-0.162C0.193,-0.12 0.182,-0.083 0.151,-0.052C0.138,-0.039 0.124,-0.029 0.109,-0.021C0.094,-0.013 0.078,-0.007 0.061,-0.002C0.038,0.004 0.017,-0.001 0,-0.017C-0.006,-0.023 -0.012,-0.029 -0.018,-0.035C-0.024,-0.041 -0.03,-0.047 -0.035,-0.054C-0.051,-0.071 -0.055,-0.089 -0.046,-0.109C-0.041,-0.12 -0.036,-0.13 -0.031,-0.137C-0.004,-0.176 0.031,-0.209 0.073,-0.234C0.079,-0.237 0.085,-0.241 0.092,-0.245C0.098,-0.248 0.105,-0.252 0.112,-0.256ZM0.135,-0.217C0.132,-0.216 0.13,-0.215 0.129,-0.215C0.128,-0.215 0.126,-0.214 0.125,-0.213C0.086,-0.19 0.053,-0.163 0.027,-0.13C0.022,-0.123 0.017,-0.116 0.013,-0.109C0.009,-0.101 0.005,-0.093 0.001,-0.086C-0.001,-0.082 -0.002,-0.078 -0.003,-0.073C-0.004,-0.068 -0.002,-0.063 0.001,-0.058C0.006,-0.059 0.011,-0.061 0.016,-0.062C0.021,-0.063 0.026,-0.064 0.031,-0.066C0.066,-0.081 0.095,-0.102 0.117,-0.131C0.135,-0.155 0.141,-0.184 0.135,-0.217Z" style="fill:white;fill-rule:nonzero;"/>
        </g>
    </g>
</svg>
