<?xml version="1.0" encoding="UTF-8" standalone="no"?>
<!DOCTYPE svg PUBLIC "-//W3C//DTD SVG 1.1//EN" "http://www.w3.org/Graphics/SVG/1.1/DTD/svg11.dtd">
<svg width="100%" height="100%" viewBox="0 0 172 61" version="1.1" xmlns="http://www.w3.org/2000/svg" xmlns:xlink="http://www.w3.org/1999/xlink" xml:space="preserve" xmlns:serif="http://www.serif.com/" style="fill-rule:evenodd;clip-rule:evenodd;stroke-linejoin:round;stroke-miterlimit:2;">
    <g transform="matrix(1,0,0,1,-12,-34)">
        <g transform="matrix(64,0,0,64,16,80)">
            <path d="M0.555,-0.662C0.567,-0.655 0.574,-0.65 0.577,-0.647C0.579,-0.643 0.579,-0.635 0.576,-0.622C0.57,-0.587 0.562,-0.552 0.552,-0.517C0.539,-0.471 0.525,-0.425 0.511,-0.379C0.497,-0.333 0.485,-0.29 0.475,-0.25C0.497,-0.259 0.52,-0.268 0.545,-0.277C0.569,-0.286 0.592,-0.294 0.613,-0.302C0.628,-0.307 0.638,-0.309 0.643,-0.307C0.648,-0.305 0.654,-0.296 0.661,-0.28C0.658,-0.277 0.656,-0.275 0.654,-0.273C0.651,-0.271 0.648,-0.269 0.645,-0.266C0.635,-0.259 0.623,-0.251 0.608,-0.244C0.592,-0.236 0.577,-0.228 0.561,-0.221C0.544,-0.214 0.528,-0.207 0.513,-0.201C0.497,-0.194 0.484,-0.189 0.473,-0.184C0.461,-0.179 0.454,-0.171 0.451,-0.158C0.444,-0.121 0.437,-0.086 0.43,-0.055C0.423,-0.023 0.416,0.012 0.407,0.049C0.404,0.066 0.4,0.081 0.395,0.096C0.39,0.111 0.38,0.119 0.364,0.12C0.35,0.12 0.341,0.118 0.337,0.115C0.333,0.112 0.331,0.103 0.33,0.088C0.329,0.055 0.33,0.022 0.335,-0.01C0.339,-0.042 0.345,-0.074 0.352,-0.106C0.354,-0.113 0.356,-0.121 0.358,-0.128C0.359,-0.135 0.361,-0.143 0.363,-0.152C0.36,-0.151 0.357,-0.15 0.354,-0.15C0.351,-0.149 0.349,-0.149 0.346,-0.148C0.328,-0.143 0.31,-0.139 0.292,-0.134C0.274,-0.129 0.256,-0.125 0.238,-0.121C0.232,-0.12 0.227,-0.118 0.224,-0.115C0.221,-0.112 0.217,-0.109 0.214,-0.104C0.201,-0.085 0.189,-0.065 0.177,-0.046C0.164,-0.026 0.151,-0.006 0.138,0.013C0.133,0.021 0.127,0.029 0.12,0.036C0.113,0.043 0.106,0.05 0.099,0.057C0.088,0.068 0.077,0.073 0.064,0.074C0.051,0.074 0.038,0.072 0.025,0.067C0.016,0.064 0.009,0.056 0.006,0.044C0.003,0.032 0.004,0.022 0.009,0.013C0.01,0.012 0.012,0.011 0.016,0.011C0.019,0.01 0.022,0.009 0.025,0.008C0.027,0.018 0.029,0.027 0.03,0.037C0.031,0.046 0.036,0.054 0.046,0.061C0.049,0.058 0.053,0.056 0.057,0.054C0.06,0.051 0.064,0.048 0.067,0.045C0.076,0.034 0.086,0.023 0.095,0.012C0.103,0.001 0.112,-0.01 0.12,-0.022C0.129,-0.035 0.138,-0.049 0.147,-0.064C0.155,-0.079 0.164,-0.093 0.173,-0.107L0.175,-0.116L0.137,-0.122C0.113,-0.126 0.091,-0.137 0.072,-0.155C0.062,-0.164 0.058,-0.175 0.06,-0.189C0.07,-0.188 0.076,-0.183 0.078,-0.172C0.08,-0.163 0.086,-0.157 0.096,-0.155C0.113,-0.151 0.129,-0.149 0.146,-0.15C0.162,-0.151 0.178,-0.153 0.195,-0.156C0.198,-0.157 0.201,-0.159 0.204,-0.162C0.206,-0.165 0.208,-0.168 0.21,-0.171C0.229,-0.203 0.249,-0.235 0.268,-0.266C0.286,-0.297 0.306,-0.328 0.325,-0.36C0.35,-0.404 0.377,-0.447 0.406,-0.489C0.435,-0.531 0.465,-0.572 0.497,-0.612C0.5,-0.616 0.503,-0.62 0.507,-0.624C0.51,-0.627 0.513,-0.631 0.516,-0.634C0.527,-0.648 0.54,-0.657 0.555,-0.662ZM0.26,-0.178L0.263,-0.175L0.275,-0.178C0.29,-0.184 0.306,-0.19 0.322,-0.197C0.338,-0.204 0.354,-0.21 0.37,-0.216C0.375,-0.217 0.379,-0.22 0.382,-0.223C0.384,-0.226 0.386,-0.231 0.387,-0.236C0.4,-0.277 0.413,-0.319 0.426,-0.36C0.439,-0.401 0.452,-0.442 0.465,-0.483C0.466,-0.486 0.467,-0.488 0.467,-0.49C0.428,-0.44 0.393,-0.389 0.36,-0.336C0.327,-0.283 0.294,-0.231 0.26,-0.178Z" style="fill:white;fill-rule:nonzero;"/>
        </g>
        <g transform="matrix(64,0,0,64,53.184,80)">
            <path d="M0.262,-0.016C0.267,-0.015 0.271,-0.015 0.274,-0.016C0.277,-0.017 0.281,-0.017 0.286,-0.016C0.285,-0.013 0.284,-0.011 0.284,-0.009C0.283,-0.007 0.282,-0.005 0.281,-0.004C0.273,0.011 0.265,0.025 0.258,0.039C0.25,0.053 0.241,0.065 0.232,0.075C0.223,0.085 0.212,0.092 0.201,0.097C0.189,0.101 0.175,0.101 0.158,0.097C0.137,0.081 0.125,0.059 0.121,0.032C0.117,0.005 0.118,-0.024 0.124,-0.055C0.13,-0.085 0.14,-0.115 0.154,-0.146C0.167,-0.176 0.181,-0.202 0.195,-0.224C0.197,-0.227 0.198,-0.231 0.197,-0.236L0.182,-0.221C0.163,-0.202 0.147,-0.182 0.133,-0.161C0.118,-0.14 0.103,-0.118 0.088,-0.097C0.079,-0.083 0.069,-0.069 0.059,-0.056C0.049,-0.042 0.039,-0.028 0.029,-0.014L0.023,-0.006C0.015,0.003 0.005,0.009 -0.006,0.012C-0.017,0.014 -0.028,0.012 -0.039,0.006C-0.042,0.004 -0.045,0.001 -0.046,-0.003C-0.047,-0.008 -0.049,-0.014 -0.05,-0.019C-0.051,-0.024 -0.052,-0.03 -0.051,-0.035C-0.048,-0.081 -0.04,-0.126 -0.027,-0.169C-0.014,-0.212 0.006,-0.252 0.032,-0.291C0.037,-0.298 0.042,-0.305 0.047,-0.312C0.052,-0.318 0.058,-0.324 0.063,-0.331C0.07,-0.339 0.076,-0.343 0.079,-0.344C0.082,-0.345 0.087,-0.343 0.094,-0.34C0.099,-0.337 0.101,-0.333 0.103,-0.328L0.103,-0.313C0.101,-0.307 0.1,-0.301 0.098,-0.295C0.095,-0.289 0.093,-0.283 0.092,-0.278C0.083,-0.253 0.075,-0.228 0.067,-0.203C0.058,-0.178 0.05,-0.152 0.042,-0.127C0.041,-0.124 0.04,-0.12 0.039,-0.117C0.038,-0.114 0.037,-0.11 0.037,-0.107C0.05,-0.128 0.066,-0.15 0.083,-0.173C0.1,-0.195 0.119,-0.216 0.139,-0.237C0.159,-0.257 0.18,-0.276 0.202,-0.294C0.224,-0.312 0.246,-0.328 0.268,-0.341C0.273,-0.337 0.277,-0.332 0.279,-0.327C0.281,-0.321 0.285,-0.316 0.291,-0.311C0.296,-0.307 0.298,-0.303 0.298,-0.298C0.297,-0.293 0.296,-0.287 0.295,-0.282C0.288,-0.262 0.282,-0.246 0.277,-0.235C0.272,-0.224 0.267,-0.214 0.263,-0.205C0.258,-0.196 0.253,-0.186 0.248,-0.176C0.242,-0.165 0.235,-0.152 0.226,-0.135C0.22,-0.124 0.214,-0.109 0.208,-0.09C0.202,-0.071 0.197,-0.053 0.193,-0.034C0.189,-0.015 0.187,0.003 0.187,0.019C0.186,0.034 0.188,0.045 0.193,0.05C0.198,0.055 0.206,0.053 0.217,0.044C0.228,0.035 0.243,0.015 0.262,-0.016Z" style="fill:white;fill-rule:nonzero;"/>
        </g>
        <g transform="matrix(64,0,0,64,73.6,80)">
            <path d="M0.036,-0.226C0.022,-0.243 0.012,-0.262 0.007,-0.283C0.002,-0.304 0,-0.324 0.001,-0.344C0.002,-0.363 0.006,-0.382 0.013,-0.399C0.02,-0.416 0.029,-0.429 0.04,-0.439C0.049,-0.433 0.051,-0.424 0.046,-0.413C0.028,-0.371 0.024,-0.328 0.033,-0.283C0.034,-0.276 0.036,-0.27 0.039,-0.263C0.041,-0.256 0.043,-0.249 0.046,-0.241C0.049,-0.244 0.052,-0.247 0.054,-0.25C0.055,-0.253 0.057,-0.255 0.058,-0.256C0.071,-0.271 0.084,-0.285 0.097,-0.3C0.11,-0.315 0.123,-0.329 0.137,-0.342C0.146,-0.351 0.156,-0.358 0.167,-0.365C0.177,-0.371 0.187,-0.377 0.198,-0.383C0.206,-0.388 0.216,-0.392 0.229,-0.393C0.248,-0.396 0.262,-0.393 0.272,-0.382C0.282,-0.371 0.285,-0.356 0.282,-0.337C0.275,-0.305 0.26,-0.277 0.236,-0.252C0.225,-0.239 0.212,-0.228 0.199,-0.219C0.185,-0.21 0.17,-0.201 0.155,-0.194C0.144,-0.189 0.133,-0.185 0.122,-0.183C0.111,-0.181 0.099,-0.182 0.086,-0.185C0.083,-0.18 0.081,-0.175 0.079,-0.171C0.076,-0.166 0.073,-0.16 0.07,-0.155C0.077,-0.157 0.084,-0.159 0.091,-0.161C0.097,-0.163 0.103,-0.164 0.108,-0.165C0.113,-0.166 0.119,-0.166 0.125,-0.166C0.13,-0.165 0.135,-0.164 0.14,-0.161C0.145,-0.158 0.15,-0.156 0.155,-0.157C0.16,-0.158 0.165,-0.159 0.17,-0.161C0.189,-0.168 0.205,-0.174 0.219,-0.179C0.233,-0.184 0.246,-0.188 0.259,-0.191C0.272,-0.194 0.285,-0.196 0.298,-0.199C0.311,-0.201 0.327,-0.204 0.344,-0.207C0.345,-0.202 0.347,-0.198 0.348,-0.195C0.349,-0.191 0.351,-0.187 0.352,-0.183C0.332,-0.176 0.316,-0.171 0.303,-0.167C0.29,-0.162 0.279,-0.158 0.268,-0.155C0.257,-0.152 0.245,-0.148 0.232,-0.144C0.219,-0.14 0.203,-0.135 0.183,-0.128C0.184,-0.124 0.186,-0.121 0.187,-0.118C0.188,-0.115 0.189,-0.112 0.19,-0.109C0.197,-0.098 0.201,-0.087 0.202,-0.076C0.203,-0.065 0.203,-0.053 0.2,-0.042C0.195,-0.015 0.188,0.012 0.181,0.038C0.173,0.064 0.162,0.089 0.148,0.112C0.143,0.121 0.137,0.131 0.13,0.14C0.123,0.149 0.115,0.157 0.108,0.166C0.098,0.178 0.085,0.184 0.068,0.184C0.045,0.184 0.026,0.18 0.011,0.172C-0.004,0.164 -0.016,0.149 -0.026,0.127C-0.035,0.107 -0.041,0.087 -0.044,0.066C-0.046,0.045 -0.046,0.023 -0.043,0.001C-0.042,-0.001 -0.042,-0.004 -0.042,-0.009L-0.042,-0.01C-0.042,-0.011 -0.042,-0.011 -0.043,-0.011L-0.043,-0.013C-0.056,-0.005 -0.069,0.004 -0.08,0.014C-0.091,0.023 -0.102,0.033 -0.115,0.044L-0.129,0.028C-0.123,0.021 -0.117,0.015 -0.112,0.009C-0.107,0.002 -0.101,-0.004 -0.095,-0.009C-0.087,-0.016 -0.079,-0.024 -0.07,-0.031C-0.061,-0.038 -0.052,-0.044 -0.043,-0.051C-0.04,-0.054 -0.037,-0.057 -0.035,-0.06C-0.032,-0.062 -0.03,-0.065 -0.029,-0.07C-0.017,-0.124 0.004,-0.174 0.034,-0.22L0.036,-0.226ZM0.159,-0.116C0.154,-0.115 0.15,-0.113 0.147,-0.112C0.144,-0.111 0.14,-0.109 0.137,-0.108C0.124,-0.103 0.112,-0.097 0.1,-0.091C0.087,-0.085 0.074,-0.079 0.061,-0.074C0.044,-0.067 0.034,-0.054 0.03,-0.035C0.025,-0.006 0.022,0.022 0.021,0.051C0.02,0.079 0.024,0.107 0.033,0.136C0.034,0.141 0.036,0.145 0.038,0.15C0.04,0.155 0.042,0.16 0.045,0.166C0.05,0.162 0.054,0.158 0.058,0.155C0.061,0.152 0.064,0.148 0.067,0.145C0.077,0.132 0.085,0.12 0.09,0.109C0.098,0.09 0.106,0.072 0.114,0.054C0.122,0.035 0.13,0.017 0.137,-0.002C0.142,-0.015 0.146,-0.029 0.149,-0.043C0.152,-0.057 0.155,-0.071 0.158,-0.085C0.159,-0.09 0.16,-0.094 0.16,-0.1C0.159,-0.105 0.159,-0.11 0.159,-0.116ZM0.257,-0.363C0.244,-0.358 0.23,-0.35 0.215,-0.34C0.2,-0.329 0.185,-0.316 0.171,-0.302C0.157,-0.288 0.145,-0.274 0.134,-0.259C0.123,-0.244 0.115,-0.231 0.111,-0.22C0.127,-0.229 0.143,-0.238 0.158,-0.247C0.173,-0.256 0.187,-0.266 0.2,-0.277C0.213,-0.288 0.224,-0.301 0.234,-0.315C0.243,-0.329 0.251,-0.345 0.257,-0.363Z" style="fill:white;fill-rule:nonzero;"/>
        </g>
        <g transform="matrix(64,0,0,64,94.016,80)">
            <path d="M0.203,-0.043C0.208,-0.048 0.214,-0.054 0.219,-0.06C0.224,-0.065 0.229,-0.071 0.234,-0.077C0.25,-0.098 0.266,-0.12 0.282,-0.141C0.297,-0.162 0.313,-0.184 0.329,-0.205C0.333,-0.21 0.337,-0.216 0.342,-0.222C0.347,-0.227 0.352,-0.234 0.358,-0.241L0.368,-0.224C0.361,-0.213 0.353,-0.201 0.346,-0.189C0.339,-0.177 0.331,-0.165 0.323,-0.154C0.31,-0.135 0.296,-0.115 0.283,-0.096C0.269,-0.076 0.255,-0.056 0.241,-0.037C0.239,-0.034 0.237,-0.031 0.235,-0.029C0.232,-0.026 0.23,-0.023 0.227,-0.02C0.22,-0.015 0.215,-0.012 0.211,-0.012C0.206,-0.011 0.2,-0.013 0.191,-0.016C0.172,-0.023 0.158,-0.034 0.15,-0.048C0.141,-0.062 0.136,-0.079 0.135,-0.098C0.134,-0.101 0.134,-0.105 0.134,-0.109C0.133,-0.112 0.132,-0.117 0.131,-0.123C0.127,-0.118 0.123,-0.113 0.12,-0.109C0.117,-0.104 0.114,-0.1 0.111,-0.096C0.102,-0.085 0.094,-0.074 0.087,-0.063C0.079,-0.051 0.07,-0.04 0.061,-0.029C0.056,-0.024 0.051,-0.019 0.046,-0.014C0.041,-0.009 0.035,-0.004 0.03,0.001C0.023,0.006 0.016,0.007 0.009,0.002C0.004,-0.001 -0.002,-0.005 -0.009,-0.008C-0.015,-0.011 -0.021,-0.014 -0.026,-0.018C-0.041,-0.029 -0.049,-0.042 -0.049,-0.059C-0.049,-0.069 -0.049,-0.079 -0.048,-0.089C-0.047,-0.099 -0.046,-0.109 -0.043,-0.118C-0.032,-0.159 -0.016,-0.196 0.005,-0.231C0.026,-0.266 0.052,-0.297 0.084,-0.325C0.094,-0.334 0.105,-0.342 0.117,-0.347C0.128,-0.352 0.141,-0.355 0.154,-0.357C0.167,-0.359 0.179,-0.359 0.191,-0.357C0.202,-0.354 0.213,-0.348 0.223,-0.339C0.232,-0.344 0.24,-0.349 0.248,-0.354C0.256,-0.359 0.266,-0.361 0.277,-0.358C0.284,-0.357 0.29,-0.353 0.293,-0.348C0.296,-0.342 0.3,-0.336 0.303,-0.33C0.274,-0.298 0.252,-0.264 0.235,-0.227C0.218,-0.19 0.206,-0.151 0.199,-0.11C0.196,-0.099 0.195,-0.088 0.196,-0.078C0.196,-0.067 0.197,-0.056 0.198,-0.045C0.199,-0.045 0.2,-0.044 0.203,-0.043ZM0.016,-0.043L0.022,-0.04C0.029,-0.047 0.036,-0.054 0.043,-0.061C0.05,-0.067 0.056,-0.074 0.063,-0.081C0.074,-0.093 0.086,-0.105 0.097,-0.118C0.108,-0.131 0.119,-0.143 0.13,-0.156C0.134,-0.161 0.137,-0.167 0.139,-0.175C0.148,-0.214 0.163,-0.253 0.186,-0.29C0.187,-0.292 0.189,-0.294 0.19,-0.297C0.191,-0.299 0.192,-0.302 0.195,-0.306C0.189,-0.304 0.184,-0.302 0.181,-0.301C0.177,-0.299 0.173,-0.297 0.17,-0.296C0.121,-0.269 0.084,-0.23 0.058,-0.179C0.049,-0.161 0.041,-0.143 0.035,-0.124C0.029,-0.105 0.024,-0.086 0.02,-0.067C0.019,-0.063 0.019,-0.059 0.019,-0.055C0.018,-0.051 0.017,-0.047 0.016,-0.043Z" style="fill:white;fill-rule:nonzero;"/>
        </g>
        <g transform="matrix(64,0,0,64,115.712,80)">
            <path d="M0.049,-0.135C0.076,-0.17 0.105,-0.202 0.134,-0.231C0.163,-0.26 0.196,-0.282 0.235,-0.297C0.244,-0.3 0.253,-0.3 0.26,-0.297C0.267,-0.293 0.273,-0.288 0.277,-0.281C0.281,-0.274 0.283,-0.266 0.284,-0.257C0.285,-0.248 0.283,-0.24 0.28,-0.233C0.253,-0.172 0.228,-0.114 0.207,-0.057C0.185,0.001 0.17,0.06 0.161,0.122L0.161,0.134C0.184,0.103 0.207,0.074 0.23,0.045C0.252,0.016 0.274,-0.014 0.297,-0.044C0.301,-0.042 0.305,-0.04 0.308,-0.039C0.311,-0.037 0.315,-0.035 0.318,-0.033C0.301,0 0.282,0.031 0.26,0.061C0.238,0.091 0.217,0.121 0.197,0.151C0.194,0.155 0.191,0.16 0.187,0.165C0.181,0.173 0.176,0.179 0.173,0.184C0.169,0.188 0.165,0.191 0.161,0.192C0.157,0.193 0.152,0.192 0.147,0.191C0.142,0.19 0.134,0.187 0.125,0.184C0.118,0.181 0.112,0.178 0.107,0.174C0.102,0.169 0.1,0.163 0.099,0.156C0.098,0.145 0.096,0.133 0.095,0.122C0.094,0.11 0.094,0.098 0.095,0.087C0.097,0.061 0.101,0.035 0.106,0.011C0.111,-0.014 0.119,-0.039 0.128,-0.062C0.14,-0.092 0.153,-0.121 0.167,-0.15C0.18,-0.178 0.195,-0.206 0.211,-0.233C0.216,-0.241 0.221,-0.25 0.226,-0.26C0.217,-0.26 0.206,-0.256 0.195,-0.248C0.183,-0.239 0.171,-0.23 0.161,-0.219C0.15,-0.208 0.139,-0.196 0.13,-0.185C0.121,-0.174 0.114,-0.165 0.109,-0.158C0.09,-0.132 0.072,-0.107 0.056,-0.083C0.039,-0.058 0.024,-0.033 0.01,-0.008C-0.003,0.012 -0.019,0.015 -0.04,0.002C-0.047,-0.003 -0.05,-0.01 -0.049,-0.019C-0.046,-0.034 -0.044,-0.05 -0.043,-0.066C-0.041,-0.081 -0.038,-0.097 -0.035,-0.112C-0.026,-0.15 -0.016,-0.187 -0.003,-0.224C0.01,-0.261 0.025,-0.297 0.042,-0.332C0.025,-0.334 0.01,-0.341 -0.001,-0.352C-0.012,-0.363 -0.021,-0.375 -0.026,-0.39C-0.031,-0.405 -0.034,-0.42 -0.033,-0.437C-0.032,-0.453 -0.028,-0.467 -0.021,-0.48C-0.016,-0.479 -0.013,-0.476 -0.013,-0.472C-0.012,-0.468 -0.012,-0.464 -0.012,-0.461C-0.013,-0.448 -0.013,-0.435 -0.012,-0.423C-0.01,-0.41 -0.006,-0.399 -0.001,-0.39C0.004,-0.381 0.012,-0.373 0.021,-0.368C0.03,-0.362 0.042,-0.359 0.056,-0.36C0.058,-0.363 0.06,-0.367 0.062,-0.37C0.064,-0.373 0.066,-0.376 0.067,-0.379C0.08,-0.401 0.095,-0.422 0.111,-0.442C0.126,-0.462 0.145,-0.48 0.166,-0.495C0.177,-0.502 0.189,-0.508 0.203,-0.513C0.217,-0.517 0.229,-0.514 0.24,-0.503C0.245,-0.498 0.249,-0.493 0.254,-0.488C0.258,-0.483 0.262,-0.477 0.265,-0.471C0.266,-0.468 0.267,-0.465 0.268,-0.461C0.268,-0.457 0.268,-0.453 0.267,-0.45C0.264,-0.433 0.257,-0.418 0.246,-0.406C0.235,-0.394 0.223,-0.383 0.209,-0.374C0.198,-0.367 0.186,-0.36 0.173,-0.354C0.16,-0.347 0.148,-0.341 0.135,-0.336C0.13,-0.333 0.126,-0.331 0.123,-0.329C0.12,-0.326 0.117,-0.322 0.115,-0.317C0.104,-0.288 0.094,-0.259 0.083,-0.23C0.072,-0.201 0.062,-0.172 0.051,-0.143C0.05,-0.142 0.05,-0.14 0.05,-0.139C0.05,-0.138 0.05,-0.136 0.049,-0.135ZM0.15,-0.384C0.16,-0.388 0.17,-0.394 0.181,-0.401C0.192,-0.408 0.202,-0.417 0.211,-0.426C0.22,-0.435 0.227,-0.444 0.233,-0.453C0.238,-0.462 0.241,-0.469 0.242,-0.476C0.228,-0.477 0.213,-0.468 0.196,-0.452C0.179,-0.435 0.163,-0.412 0.15,-0.384Z" style="fill:white;fill-rule:nonzero;"/>
        </g>
        <g transform="matrix(64,0,0,64,136.512,80)">
            <path d="M0.057,-0.203C0.064,-0.204 0.071,-0.207 0.076,-0.21C0.081,-0.213 0.085,-0.217 0.089,-0.221C0.1,-0.232 0.11,-0.244 0.12,-0.255C0.129,-0.266 0.139,-0.277 0.149,-0.288C0.161,-0.301 0.174,-0.301 0.187,-0.289C0.191,-0.286 0.193,-0.282 0.194,-0.278C0.195,-0.274 0.194,-0.27 0.193,-0.265C0.188,-0.249 0.183,-0.233 0.178,-0.217C0.173,-0.201 0.168,-0.185 0.163,-0.17C0.156,-0.149 0.15,-0.127 0.147,-0.106C0.144,-0.085 0.141,-0.063 0.139,-0.042C0.139,-0.041 0.139,-0.039 0.14,-0.038C0.14,-0.037 0.14,-0.035 0.141,-0.032C0.15,-0.037 0.158,-0.042 0.165,-0.048C0.171,-0.053 0.177,-0.059 0.183,-0.066C0.202,-0.086 0.222,-0.106 0.242,-0.126C0.262,-0.146 0.282,-0.166 0.301,-0.185L0.31,-0.194C0.313,-0.193 0.315,-0.191 0.318,-0.19C0.32,-0.189 0.322,-0.187 0.324,-0.186C0.323,-0.185 0.323,-0.184 0.324,-0.183C0.324,-0.182 0.324,-0.182 0.323,-0.181C0.306,-0.158 0.289,-0.134 0.272,-0.111C0.255,-0.087 0.237,-0.065 0.216,-0.044C0.209,-0.037 0.201,-0.03 0.194,-0.023C0.186,-0.016 0.178,-0.01 0.17,-0.004C0.157,0.007 0.144,0.008 0.13,0L0.115,-0.007C0.1,-0.01 0.091,-0.017 0.086,-0.027C0.081,-0.037 0.077,-0.049 0.076,-0.062C0.075,-0.079 0.076,-0.096 0.079,-0.113C0.082,-0.129 0.086,-0.145 0.09,-0.161L0.096,-0.181C0.093,-0.18 0.09,-0.179 0.086,-0.178C0.073,-0.172 0.061,-0.173 0.049,-0.18C0.044,-0.183 0.038,-0.185 0.032,-0.187C0.014,-0.196 0.003,-0.21 -0.001,-0.231C-0.005,-0.25 -0.006,-0.269 -0.004,-0.288C-0.002,-0.306 0.003,-0.324 0.01,-0.341C0.019,-0.362 0.03,-0.381 0.042,-0.4C0.053,-0.418 0.068,-0.434 0.087,-0.447C0.09,-0.449 0.092,-0.451 0.095,-0.453C0.097,-0.455 0.099,-0.457 0.102,-0.458C0.115,-0.465 0.125,-0.467 0.134,-0.465C0.142,-0.462 0.15,-0.455 0.157,-0.443C0.16,-0.439 0.16,-0.435 0.159,-0.432C0.158,-0.429 0.156,-0.425 0.155,-0.422C0.144,-0.403 0.131,-0.382 0.118,-0.36C0.105,-0.339 0.094,-0.317 0.085,-0.294C0.076,-0.271 0.068,-0.247 0.061,-0.223C0.06,-0.219 0.058,-0.212 0.057,-0.203Z" style="fill:white;fill-rule:nonzero;"/>
        </g>
        <g transform="matrix(64,0,0,64,155.136,80)">
            <path d="M-0.006,0.177C-0.014,0.177 -0.019,0.176 -0.022,0.174C-0.024,0.171 -0.029,0.17 -0.036,0.17C-0.037,0.167 -0.038,0.164 -0.039,0.161C-0.04,0.158 -0.04,0.156 -0.041,0.153C-0.046,0.125 -0.048,0.098 -0.048,0.071C-0.047,0.044 -0.046,0.017 -0.043,-0.01C-0.036,-0.079 -0.026,-0.146 -0.011,-0.212C0.004,-0.278 0.023,-0.343 0.047,-0.408C0.048,-0.41 0.048,-0.412 0.049,-0.414C0.049,-0.416 0.05,-0.419 0.051,-0.422C0.048,-0.422 0.045,-0.422 0.042,-0.423L0.034,-0.423C0.022,-0.424 0.01,-0.426 -0.002,-0.427C-0.014,-0.428 -0.026,-0.429 -0.039,-0.431C-0.054,-0.434 -0.066,-0.44 -0.077,-0.449C-0.087,-0.458 -0.096,-0.468 -0.103,-0.481L-0.106,-0.49C-0.107,-0.491 -0.106,-0.494 -0.105,-0.497L-0.099,-0.493C-0.094,-0.485 -0.089,-0.48 -0.082,-0.477C-0.075,-0.474 -0.067,-0.472 -0.059,-0.471C-0.038,-0.469 -0.017,-0.469 0.004,-0.471C0.024,-0.472 0.044,-0.476 0.064,-0.483C0.069,-0.484 0.073,-0.487 0.076,-0.49C0.079,-0.493 0.081,-0.496 0.084,-0.501C0.093,-0.519 0.103,-0.537 0.113,-0.555C0.122,-0.573 0.132,-0.591 0.143,-0.608C0.147,-0.615 0.152,-0.622 0.158,-0.629C0.163,-0.636 0.17,-0.641 0.177,-0.646L0.183,-0.644C0.193,-0.637 0.199,-0.632 0.202,-0.628C0.205,-0.624 0.206,-0.62 0.205,-0.616C0.204,-0.612 0.201,-0.607 0.198,-0.602C0.194,-0.597 0.19,-0.59 0.187,-0.581C0.183,-0.571 0.179,-0.561 0.175,-0.551C0.17,-0.54 0.165,-0.529 0.16,-0.517C0.165,-0.518 0.168,-0.519 0.171,-0.52C0.174,-0.52 0.177,-0.521 0.18,-0.522C0.201,-0.531 0.225,-0.54 0.251,-0.551C0.276,-0.562 0.3,-0.571 0.321,-0.579C0.328,-0.582 0.334,-0.584 0.341,-0.586C0.347,-0.587 0.353,-0.589 0.36,-0.59C0.369,-0.592 0.376,-0.588 0.379,-0.579C0.38,-0.576 0.382,-0.571 0.385,-0.566C0.39,-0.556 0.392,-0.549 0.391,-0.545C0.39,-0.541 0.384,-0.536 0.375,-0.531C0.369,-0.528 0.363,-0.524 0.357,-0.521C0.351,-0.518 0.345,-0.515 0.338,-0.513C0.309,-0.502 0.28,-0.491 0.251,-0.481C0.222,-0.47 0.193,-0.46 0.163,-0.45C0.151,-0.445 0.143,-0.437 0.14,-0.426C0.119,-0.363 0.099,-0.298 0.08,-0.232C0.06,-0.165 0.044,-0.099 0.032,-0.034C0.026,-0.002 0.02,0.029 0.015,0.061C0.01,0.091 0.004,0.123 -0.001,0.155C-0.002,0.158 -0.002,0.162 -0.003,0.165C-0.004,0.168 -0.005,0.172 -0.006,0.177Z" style="fill:white;fill-rule:nonzero;"/>
        </g>
    </g>
</svg>
